<svg xmlns="http://www.w3.org/2000/svg" width="79" height="79" viewBox="0 0 79 79" fill="none">
    <path d="M74.5983 60.9782C74.5983 64.0293 72.8556 66.8192 70.1011 68.1313C64.9006 70.6086 54.9912 73.947 39.3535 73.947C23.7157 73.947 13.8064 70.6086 8.60587 68.1313C5.85128 66.8192 4.10864 64.0293 4.10864 60.9782C4.10864 56.5951 7.6619 53.0418 12.045 53.0418H66.6619C71.045 53.0418 74.5983 56.5951 74.5983 60.9782Z" fill="#E59328"/>
    <path d="M74.2919 48.888C74.2919 45.837 72.5492 43.0471 69.7947 41.735C64.5942 39.2577 54.6848 35.9193 39.0471 35.9193C23.4093 35.9193 13.5 39.2577 8.29947 41.735C5.54488 43.0471 3.80225 45.837 3.80225 48.888C3.80225 48.9321 3.80485 48.9756 3.80561 49.0194C3.80485 49.0634 3.80225 49.1068 3.80225 49.1508C3.80225 52.2018 5.54488 54.9918 8.29947 56.3038C13.5 58.7811 23.4093 62.1196 39.0471 62.1196C54.6848 62.1196 64.5942 58.7811 69.7947 56.3038C72.5492 54.9918 74.2919 52.2018 74.2919 49.1508C74.2919 49.1067 74.2893 49.0632 74.2885 49.0194C74.2893 48.9755 74.2919 48.932 74.2919 48.888Z" fill="#7A2F18"/>
    <path d="M39.8318 56.6877C57.7101 56.6877 72.2033 51.7509 72.2033 45.6609C72.2033 39.571 57.7101 34.6342 39.8318 34.6342C21.9534 34.6342 7.46021 39.571 7.46021 45.6609C7.46021 51.7509 21.9534 56.6877 39.8318 56.6877Z" fill="#DB1D1D"/>
    <path d="M39.8318 52.49C57.7101 52.49 72.2033 47.5531 72.2033 41.4632C72.2033 35.3733 57.7101 30.4364 39.8318 30.4364C21.9534 30.4364 7.46021 35.3733 7.46021 41.4632C7.46021 47.5531 21.9534 52.49 39.8318 52.49Z" fill="#FF473E"/>
    <path d="M74.9204 34.517C71.2204 32.4631 65.8125 31.655 61.0585 31.6571C58.4653 31.6583 55.8253 31.9289 53.3503 32.435C51.4224 32.8291 49.5381 33.3278 47.5554 33.5844C47.223 33.5981 46.8904 33.6013 46.5578 33.5937C46.3298 33.5584 46.1028 33.5166 45.8772 33.4683C45.0553 33.1923 44.2747 32.869 43.478 32.5602C42.2013 32.0655 40.8644 31.6787 39.4893 31.3138C37.0702 30.6721 34.5223 30.3662 31.9294 30.2132C27.033 29.9243 21.9852 30.6623 17.6317 32.1451C16.9346 32.2026 16.2469 32.3433 15.5831 32.5642C11.1392 34.0462 7.37557 36.4117 4.7323 39.1744C4.17097 39.7612 3.67395 40.3747 3.24736 41.0085C2.31748 42.3901 1.48329 43.8111 2.30814 45.339C3.85249 48.1997 8.46792 49.2433 12.7137 48.572C15.6423 48.109 17.9259 46.8404 20.2225 45.6403C20.7982 45.3674 21.3941 45.1185 22.0227 44.905C22.0925 44.8902 22.1622 47.4799 22.2324 47.4664C22.8213 47.8198 23.3759 48.1974 23.9778 48.5422C25.0031 49.1297 26.1 49.6958 27.2665 50.1597C29.6553 51.1101 32.5123 51.7188 35.3231 51.7016C38.1948 51.6842 40.9375 51.0821 43.2035 49.9329C44.4106 49.3206 45.4009 48.5984 46.166 47.7189C46.446 47.397 46.688 47.0637 46.9529 46.7389C47.1695 46.7763 48.8088 44.7144 49.3805 44.9862C50.8117 45.7394 52.2091 46.531 53.7602 47.1733C55.905 48.0615 58.4292 48.5949 60.9749 48.5993C65.8767 48.6082 70.501 46.751 73.9042 44.5626C75.6603 43.4334 77.3027 41.9345 77.7856 40.321C78.4253 38.1833 77.5132 35.9564 74.9204 34.517ZM24.7261 37.8641C25.75 37.6443 26.7841 37.4755 27.8246 37.3582C29.2601 37.2682 30.6998 37.2682 32.1353 37.3582C33.4831 37.5105 34.8005 37.7428 36.0812 38.0576C37.097 38.3785 38.0514 41.3686 39.0235 41.7384C38.0386 42.5012 37.4836 43.4114 36.6725 44.2526C36.6313 44.2805 36.5888 44.3076 36.5464 44.3347C36.4411 44.3767 36.335 44.4168 36.2283 44.455C36.0289 44.4955 35.8285 44.531 35.6273 44.5616C35.3696 44.5685 35.1117 44.5682 34.8539 44.5607C34.4695 44.5035 34.0873 44.4321 33.7082 44.3464C33.0989 44.1452 32.5014 43.9102 31.9182 43.6426C30.8493 43.0434 29.8824 42.3734 28.7663 41.8073C27.5609 41.1962 26.1925 38.1097 24.7261 37.8641ZM64.9398 40.2671C64.1604 40.6343 63.3483 40.9647 62.489 41.2434C62.1075 41.3299 61.7228 41.4019 61.3358 41.4593C61.1364 41.4641 60.9368 41.4645 60.7373 41.4603C60.5393 41.429 60.3422 41.3929 60.146 41.3519C59.463 41.1192 58.8207 40.8428 58.1981 40.5441C57.4636 40.155 56.7377 39.7529 55.9932 39.3689C57.0106 39.1613 58.0358 38.9791 59.0891 38.8537C60.4294 38.7716 61.7734 38.7724 63.1135 38.8561C64.2115 38.9821 65.3018 39.1678 66.3795 39.4122C65.9249 39.7143 65.4409 39.9968 64.9398 40.2671Z" fill="#00B89C"/>
    <path d="M17.9677 50.9215C15.9127 47.5973 11.9624 41.4696 7.02697 35.0906C-0.0645261 36.2941 56.4531 26.7677 56.4531 26.7677C72.2359 28.4301 74.3206 36.2385 74.3286 40.2196C74.3312 41.4938 73.2382 42.4963 71.9672 42.4064C38.1557 40.0124 25.4962 47.5599 21.3265 51.3947C20.3106 52.3288 18.6935 52.0954 17.9677 50.9215Z" fill="#FECB21"/>
    <path d="M39.0471 3.99928C20.1837 3.99928 3.80225 15.9131 3.80225 30.2636C3.80225 37.915 19.5818 44.1177 39.0471 44.1177C58.5123 44.1177 74.2919 37.915 74.2919 30.2636C74.2919 16.319 57.9104 3.99928 39.0471 3.99928Z" fill="#E59328"/>
    <path d="M16.9443 20.4933L18.4235 23.6985C18.5074 23.8802 18.5156 24.0877 18.4464 24.2754C18.3772 24.4632 18.2363 24.6157 18.0547 24.6996C17.949 24.7478 17.8337 24.7712 17.7176 24.768C17.6016 24.7648 17.4877 24.735 17.3849 24.6811L14.2665 23.0269C13.3175 22.5235 12.9561 21.346 13.4596 20.397C13.9631 19.4479 15.1405 19.0866 16.0896 19.59C16.4659 19.7891 16.7663 20.1065 16.9443 20.4933ZM48.1269 9.15061C47.1778 8.64716 46.0004 9.00852 45.4969 9.95754C44.9935 10.9066 45.3548 12.084 46.3038 12.5875L49.4222 14.2416C49.5251 14.2956 49.6389 14.3254 49.755 14.3286C49.871 14.3318 49.9863 14.3084 50.092 14.2602C50.2736 14.1763 50.4146 14.0237 50.4837 13.836C50.5529 13.6483 50.5447 13.4407 50.4608 13.2591L48.9816 10.0539C48.8035 9.66715 48.5032 9.34975 48.1269 9.15061ZM30.5796 13.0923C29.9634 12.2122 28.7504 11.9983 27.8703 12.6146C26.9902 13.2309 26.7763 14.4437 27.3926 15.3239L29.4172 18.2155C29.4842 18.3103 29.5721 18.3886 29.674 18.4442C29.7759 18.4999 29.8892 18.5315 30.0052 18.5366C30.2051 18.5445 30.4 18.4726 30.547 18.3369C30.694 18.2012 30.7811 18.0127 30.7892 17.8128L30.9299 14.2856C30.9472 13.8602 30.8241 13.4409 30.5796 13.0923ZM66.3344 21.6919C66.7999 20.6763 66.3539 19.4757 65.3384 19.0103C64.3227 18.5449 63.1222 18.9909 62.6568 20.0064L61.5155 22.4967C61.4527 22.6338 61.4307 22.7862 61.4523 22.9356C61.4739 23.0849 61.5381 23.2248 61.6372 23.3386C61.7363 23.4524 61.8661 23.5352 62.011 23.5771C62.1559 23.6189 62.3099 23.6182 62.4544 23.5748L65.0779 22.7862C65.6115 22.6231 66.0836 22.239 66.3344 21.6919ZM37.4783 29.9071C36.4222 29.7101 35.4063 30.4063 35.2091 31.4623C35.012 32.5184 35.7082 33.5343 36.7643 33.7315L40.2344 34.3792C40.3486 34.4 40.4661 34.3945 40.5778 34.3629C40.6896 34.3313 40.7926 34.2746 40.879 34.197C40.9525 34.1305 41.0121 34.0503 41.0546 33.9607C41.097 33.8712 41.1214 33.7742 41.1263 33.6752C41.1313 33.5763 41.1167 33.4773 41.0833 33.384C41.05 33.2907 40.9986 33.2049 40.9322 33.1315L38.5636 30.5141C38.2783 30.1981 37.8969 29.9848 37.4783 29.9071ZM56.1816 32.8552C56.6117 33.8398 57.7584 34.2892 58.743 33.8591C59.7275 33.429 60.1769 32.2823 59.7468 31.2977L58.3335 28.063C58.2866 27.9567 58.216 27.8627 58.1271 27.788C58.0381 27.7133 57.9333 27.6599 57.8206 27.6319C57.7243 27.6085 57.6244 27.6042 57.5265 27.6194C57.4286 27.6346 57.3346 27.6689 57.25 27.7204C57.1653 27.7719 57.0917 27.8396 57.0332 27.9196C56.9747 27.9995 56.9325 28.0903 56.9091 28.1865L56.074 31.6164C55.9731 32.03 56.0109 32.4653 56.1816 32.8552ZM26.9623 31.8886C27.0857 30.8091 26.3106 29.8341 25.2311 29.7107C24.1517 29.5873 23.1766 30.3623 23.0532 31.4418L22.6479 34.9886C22.6378 35.0792 22.6472 35.1708 22.6754 35.2575C22.7036 35.3441 22.75 35.4237 22.8114 35.491C22.9255 35.6152 23.0842 35.6889 23.2527 35.6961C23.4212 35.7032 23.5856 35.6432 23.7098 35.5291L26.3386 33.114C26.6872 32.7939 26.9087 32.3588 26.9623 31.8886ZM44.791 25.4797C45.7995 25.8501 46.9172 25.3329 47.2876 24.3244C47.658 23.316 47.1408 22.1982 46.1323 21.8279L42.8187 20.6109C42.7095 20.5713 42.5928 20.5572 42.4773 20.5698C42.3619 20.5823 42.2508 20.6211 42.1527 20.6831C41.984 20.7908 41.865 20.961 41.8219 21.1564C41.7788 21.3518 41.815 21.5563 41.9227 21.725L43.822 24.7005C44.0506 25.0596 44.3912 25.3334 44.791 25.4797Z" fill="#FFCD7D"/>
</svg>