<svg xmlns="http://www.w3.org/2000/svg" width="79" height="78" viewBox="0 0 79 78" fill="none">
    <path d="M76.7087 43.5292C76.4609 36.2125 76.2433 28.2796 76.2433 28.2796C76.2433 17.5717 59.9875 9.04196 39.7589 9.04196C19.5302 9.04196 3.1322 17.7246 3.1322 28.4325C3.1322 28.4325 2.91675 37.8348 2.91675 44.4578C2.91675 51.0807 3.26578 55.5621 3.26578 55.5621C3.49847 58.1195 4.36673 59.9918 6.56864 62.4781C7.45199 63.4778 8.97092 64.3978 10.0072 64.7425C11.0414 65.0872 14.0793 63.7105 14.0793 63.7105L39.7589 54.2888L49.5705 69.0063C49.5705 69.0063 50.6607 70.9324 52.3046 71.7145C53.9485 72.4987 56.0189 71.6822 57.9106 71.1091C68.9417 67.7717 75.4289 62.5341 76.476 57.1888C76.7302 55.8896 76.9414 50.3848 76.7087 43.5292Z" fill="#FFAC33"/>
    <path d="M39.7587 9.04196C19.5301 9.04196 3.13208 17.7246 3.13208 28.4325C3.13208 32.5369 5.5559 36.3374 9.66671 39.4722L39.7587 28.4325L51.9382 46.7028C66.1709 44.042 76.3854 36.8761 76.3854 28.4325C76.3854 17.7246 59.9874 9.04196 39.7587 9.04196Z" fill="#F4900C"/>
    <path d="M39.7585 9.04196C20.7191 9.04196 5.28638 17.242 5.28638 27.3553C5.28638 31.5393 7.95797 35.3851 12.4049 38.4682L39.7585 28.4325L50.6216 44.7271C64.3307 42.3076 74.2307 35.4498 74.2307 27.3553C74.2307 17.242 58.7979 9.04196 39.7585 9.04196Z" fill="#994500"/>
    <path d="M39.7587 9.04196C21.8397 9.04196 7.31396 16.7594 7.31396 26.278C7.31396 30.5547 10.2635 34.4587 15.1176 37.4729L39.7587 28.4325L49.3053 42.7536C62.5642 40.5861 72.2035 34.03 72.2035 26.278C72.2035 16.7594 57.6778 9.04196 39.7587 9.04196Z" fill="#662113"/>
    <path d="M51.0268 49.7019C49.6436 47.5129 39.7587 31.673 39.7587 31.673C39.7587 31.673 16.5115 40.3147 11.9806 41.9414C9.84116 42.7084 10.3475 48.8035 10.4703 53.3538C10.703 62.0688 11.5152 61.9287 13.8399 60.8946C19.0689 58.572 39.7587 51.0765 39.7587 51.0765C39.7587 51.0765 48.1203 63.6847 50.445 66.938C51.2939 68.1273 52.0329 69.6246 52.188 61.7219C52.2785 57.1716 52.4207 51.9103 51.0268 49.7019Z" fill="#662113"/>
    <path d="M40 35.1352C40 35.1352 31.6211 36.8868 31.6211 44.6646C31.6211 52.7246 39.7565 49.4282 39.7565 49.4282C39.7565 49.4282 44.5977 55.5535 45.8732 48.6612C47.1056 41.993 40 35.1352 40 35.1352Z" fill="#FFAC33"/>
    <path d="M39.7546 40.1337C39.7546 40.1337 35.9196 40.7046 35.9196 44.3177C35.9196 48.0601 39.6383 46.7588 39.6383 46.7588C39.6383 46.7588 42.2 49.5424 42.6589 46.0607C43.1157 42.6092 39.7546 40.1337 39.7546 40.1337ZM58.2317 69.073C58.0602 69.0728 57.8912 69.0316 57.7388 68.9529C57.5864 68.8742 57.4551 68.7603 57.3556 68.6206C57.2561 68.4808 57.1915 68.3194 57.167 68.1496C57.1425 67.9799 57.1589 67.8067 57.2148 67.6446C58.2403 64.6692 57.5789 52.3756 56.8291 48.7453C56.7712 48.4656 56.8267 48.1743 56.9834 47.9355C57.1402 47.6967 57.3854 47.53 57.6651 47.4719C57.8037 47.4418 57.9469 47.4395 58.0863 47.4654C58.2258 47.4912 58.3587 47.5446 58.4773 47.6225C58.5959 47.7003 58.6977 47.801 58.7769 47.9187C58.8561 48.0364 58.911 48.1687 58.9384 48.3079C59.5826 51.4212 60.5413 64.6068 59.2529 68.3491C59.1793 68.5611 59.0413 68.7449 58.8583 68.8746C58.6752 69.0044 58.4561 69.0738 58.2317 69.073ZM6.40067 60.009C6.14599 60.009 5.89956 59.9187 5.70511 59.7543C5.51066 59.5898 5.38077 59.3617 5.33849 59.1106C4.63181 54.8856 4.95284 43.6585 5.6983 40.0561C5.72474 39.9154 5.77896 39.7814 5.85779 39.6619C5.93662 39.5424 6.03848 39.4398 6.15741 39.3601C6.27635 39.2804 6.40998 39.2252 6.55048 39.1978C6.69099 39.1703 6.83556 39.1712 6.97574 39.2002C7.11592 39.2293 7.2489 39.286 7.36691 39.3671C7.48492 39.4481 7.58559 39.5519 7.66304 39.6723C7.74049 39.7927 7.79316 39.9273 7.81797 40.0683C7.84278 40.2093 7.83925 40.3539 7.80756 40.4935C7.1095 43.8653 6.79925 54.7951 7.46284 58.7529C7.48883 58.9074 7.48085 59.0656 7.43945 59.2166C7.39804 59.3676 7.32422 59.5078 7.22311 59.6274C7.122 59.7469 6.99603 59.843 6.854 59.9089C6.71196 59.9748 6.55725 60.009 6.40067 60.009ZM67.063 65.1217C66.8913 65.1218 66.7221 65.0809 66.5694 65.0023C66.4168 64.9237 66.2851 64.8098 66.1854 64.6701C66.0857 64.5303 66.0208 64.3687 65.9962 64.1988C65.9716 64.0289 65.988 63.8555 66.0439 63.6932C67.0716 60.7179 66.4102 48.4242 65.6604 44.7939C65.6025 44.5142 65.658 44.2229 65.8148 43.9841C65.9715 43.7454 66.2167 43.5786 66.4964 43.5206C66.7761 43.4626 67.0674 43.5181 67.3061 43.6749C67.5449 43.8317 67.7117 44.0768 67.7697 44.3565C68.4139 47.4719 69.3727 60.6597 68.0821 64.3978C68.0086 64.6094 67.871 64.7929 67.6883 64.9226C67.5056 65.0524 67.2871 65.122 67.063 65.1217ZM73.9208 59.0804C73.7609 59.081 73.6029 59.046 73.4582 58.978C73.3135 58.9099 73.1858 58.8105 73.0843 58.6869C72.9828 58.5634 72.9101 58.4188 72.8714 58.2636C72.8328 58.1084 72.8291 57.9466 72.8608 57.7899C73.6192 54.0023 73.4404 42.913 72.7466 39.5627C72.6887 39.283 72.7442 38.9918 72.9009 38.753C73.0577 38.5142 73.3029 38.3475 73.5826 38.2894C73.8624 38.2339 74.1528 38.2907 74.391 38.4475C74.6293 38.6043 74.7963 38.8486 74.8559 39.1275C75.5992 42.7191 75.7866 54.1552 74.9744 58.2143C74.9257 58.4581 74.7941 58.6775 74.6021 58.8353C74.4101 58.9932 74.1694 59.0798 73.9208 59.0804Z" fill="#F4900C"/>
    <path d="M14.7127 34.8896C14.4685 34.8898 14.2314 34.807 14.0405 34.6548C10.1451 31.5437 8.38489 28.2645 8.80717 24.9078C9.64097 18.274 18.817 14.0641 19.207 13.8896C19.3367 13.8257 19.4779 13.7886 19.6222 13.7804C19.7665 13.7722 19.911 13.7932 20.047 13.842C20.1831 13.8908 20.3079 13.9665 20.4141 14.0646C20.5203 14.1627 20.6057 14.2811 20.6651 14.4129C20.7245 14.5447 20.7569 14.6871 20.7601 14.8316C20.7634 14.9761 20.7375 15.1198 20.6841 15.2541C20.6307 15.3884 20.5508 15.5106 20.4491 15.6134C20.3475 15.7162 20.2262 15.7974 20.0925 15.8524C20.0063 15.8912 11.6231 19.7434 10.9423 25.1792C10.6213 27.7388 12.1165 30.3608 15.3827 32.9699C15.5573 33.1091 15.6844 33.2991 15.7463 33.5136C15.8082 33.7281 15.802 33.9566 15.7284 34.1674C15.6548 34.3782 15.5175 34.5609 15.3356 34.6903C15.1536 34.8197 14.936 34.8893 14.7127 34.8896ZM58.1627 38.4812C57.9036 38.4791 57.6539 38.3838 57.4592 38.2128C57.2645 38.0419 57.1378 37.8065 57.1023 37.5499C57.0667 37.2932 57.1247 37.0323 57.2656 36.8149C57.4065 36.5974 57.6209 36.4379 57.8697 36.3655C57.9666 36.3396 67.4982 33.5775 68.8663 27.1248C70.1956 20.8659 60.3301 16.3479 60.231 16.3027C60.1002 16.2458 59.982 16.1636 59.8833 16.0607C59.7845 15.9578 59.7072 15.8364 59.6557 15.7034C59.6043 15.5704 59.5797 15.4285 59.5835 15.286C59.5873 15.1434 59.6194 15.003 59.6779 14.873C59.7363 14.7429 59.8201 14.6258 59.9241 14.5283C60.0282 14.4308 60.1507 14.355 60.2843 14.3052C60.4179 14.2554 60.5601 14.2327 60.7026 14.2383C60.8451 14.2438 60.985 14.2777 61.1143 14.3378C61.5883 14.551 72.6582 19.6335 70.9734 27.5751C69.3295 35.3054 58.8931 38.3174 58.4514 38.4424C58.3573 38.4683 58.2602 38.4814 58.1627 38.4812ZM35.6696 25.9958L35.8118 26.0023C36.2273 26.0006 36.6262 25.839 36.9257 25.5509C37.2251 25.2629 37.4021 24.8705 37.4198 24.4554C37.4376 24.0403 37.2947 23.6343 37.021 23.3217C36.7472 23.0091 36.3635 22.8141 35.9497 22.777L31.9207 22.4279L33.5302 16.6711C37.3544 15.7727 38.7829 14.0512 38.9918 13.7711C39.2407 13.4355 39.3478 13.0156 39.2901 12.6018C39.2325 12.188 39.0148 11.8133 38.6838 11.5584C38.3482 11.3016 37.9267 11.1839 37.5067 11.2296C37.0867 11.2754 36.7004 11.4811 36.428 11.804C36.4064 11.8299 34.0925 14.4713 26.2264 13.9004C25.8019 13.8748 25.3845 14.0176 25.0646 14.2978C24.7447 14.5779 24.5482 14.9729 24.5176 15.397C24.487 15.8211 24.6247 16.2402 24.9011 16.5634C25.1774 16.8866 25.57 17.0879 25.9937 17.1235C26.8411 17.1853 27.6397 17.2155 28.3895 17.214C28.9712 17.214 29.5142 17.1925 30.0377 17.1602L28.6437 22.1435L24.5502 21.788C24.3383 21.7668 24.1243 21.7881 23.9208 21.8509C23.7173 21.9137 23.5284 22.0166 23.3654 22.1535C23.2023 22.2905 23.0683 22.4587 22.9713 22.6483C22.8743 22.8379 22.8163 23.045 22.8007 23.2574C22.7637 23.6842 22.8977 24.1083 23.1732 24.4364C23.4487 24.7644 23.8433 24.9696 24.2701 25.0069L26.3557 25.1879L18.8321 31.1063C18.6643 31.237 18.5241 31.3996 18.4195 31.5847C18.3149 31.7699 18.2481 31.974 18.2228 32.1851C18.1976 32.3963 18.2145 32.6103 18.2724 32.8149C18.3304 33.0195 18.4284 33.2106 18.5606 33.3772C18.8258 33.7136 19.2138 33.931 19.6392 33.9815C20.0647 34.032 20.4927 33.9115 20.8293 33.6465L26.7219 29.0121L25.412 33.6982L29.15 32.3258L30.2467 28.4067L31.8346 31.3433L34.9004 30.2186L32.468 25.7222L35.6696 25.9958ZM52.0956 40.2651C52.247 40.4139 52.4264 40.5313 52.6233 40.6104C52.8203 40.6896 53.031 40.729 53.2433 40.7264C53.4556 40.7238 53.6652 40.6792 53.8602 40.5953C54.0552 40.5113 54.2316 40.3896 54.3794 40.2371C54.5278 40.0854 54.6449 39.9058 54.724 39.7088C54.8031 39.5118 54.8425 39.3011 54.8401 39.0888C54.8377 38.8765 54.7935 38.6668 54.71 38.4716C54.6265 38.2764 54.5054 38.0995 54.3535 37.9512C50.9838 34.6634 50.4431 27.4867 50.4366 27.4135C50.4141 27.1652 50.3344 26.9256 50.2039 26.7133C52.5114 20.4695 52.8992 14.5489 52.9251 14.1137C52.9373 13.9018 52.9076 13.6895 52.8378 13.489C52.768 13.2885 52.6593 13.1038 52.5181 12.9453C52.3768 12.7869 52.2057 12.6578 52.0146 12.5655C51.8234 12.4732 51.6159 12.4194 51.404 12.4073C51.1918 12.393 50.9789 12.4212 50.7776 12.4901C50.5764 12.559 50.391 12.6674 50.2321 12.8088C50.0733 12.9502 49.9442 13.1219 49.8524 13.3137C49.7606 13.5056 49.708 13.7138 49.6976 13.9262C49.6911 14.0706 48.9004 26.0561 42.9368 33.1983L44.7939 35.9863C45.9716 34.682 47.0033 33.253 47.8706 31.7246C48.5126 34.4652 49.745 37.9706 52.0956 40.2651Z" fill="#994500"/>
    <path d="M58.4407 21.6221C58.2074 21.2628 57.8411 21.0109 57.4221 20.9216C57.0032 20.8323 56.5659 20.913 56.2064 21.146L52.8842 23.3005C52.5371 23.539 52.2967 23.9035 52.2144 24.3165C52.1321 24.7296 52.2143 25.1584 52.4435 25.5117C52.6727 25.865 53.0307 26.1149 53.4414 26.2082C53.8521 26.3014 54.283 26.2306 54.6423 26.0109L57.9645 23.8564C58.3238 23.6231 58.5758 23.2568 58.6651 22.8378C58.7544 22.4189 58.6736 21.9816 58.4407 21.6221ZM43.8934 24.6126C44.0407 24.7664 44.2168 24.8897 44.4118 24.9752C44.6069 25.0607 44.8169 25.1068 45.0298 25.1109C45.2427 25.115 45.4543 25.077 45.6524 24.999C45.8506 24.9211 46.0314 24.8047 46.1844 24.6566C46.3375 24.5086 46.4597 24.3317 46.5442 24.1362C46.6286 23.9408 46.6736 23.7305 46.6766 23.5176C46.6795 23.3047 46.6403 23.0933 46.5613 22.8956C46.4822 22.6978 46.3649 22.5177 46.216 22.3654L43.4345 19.4935C43.1365 19.1852 42.7283 19.0079 42.2996 19.0007C41.8709 18.9934 41.4569 19.1567 41.1486 19.4547C40.8403 19.7527 40.663 20.1609 40.6558 20.5896C40.6485 21.0183 40.8118 21.4324 41.1098 21.7406L43.8934 24.6126Z" fill="#994500"/>
</svg>