<svg xmlns="http://www.w3.org/2000/svg" width="82" height="83" viewBox="0 0 82 83" fill="none">
    <g clip-path="url(#clip0_154_9724)">
        <path d="M43.3809 62.4577C43.3809 62.4577 61.5436 61.9741 65.292 53.206C67.7189 47.5279 63.9093 31.5152 63.9093 21.5801C63.9093 18.2178 61.2598 16.4719 56.1538 16.4719H23.2407C20.6865 16.4719 15.6827 15.877 15.6827 21.2963C15.6827 31.0225 11.6755 47.0443 14.2433 52.6611C18.5025 61.9741 36.5698 62.4577 36.5698 62.4577V69.5479C36.5698 69.5479 26.1626 74.8605 24.0875 76.0933C21.8535 77.3693 23.3383 79.4126 24.2305 79.7645C25.7199 80.3502 29.3456 82.2664 39.6235 82.2664C50.1601 82.2664 53.7041 80.1913 54.9823 79.7645C55.475 79.601 58.0405 77.6485 55.0073 75.8527C49.6084 72.656 43.3809 69.5479 43.3809 69.5479V62.4577Z" fill="#8899A6"/>
        <path d="M63.8138 19.7457C63.8138 23.4259 58.0313 26.4091 39.696 26.4091C21.3607 26.4091 15.5781 23.4259 15.5781 19.7457C15.5781 16.0632 21.3607 13.0822 39.696 13.0822C58.0313 13.0822 63.8138 16.0654 63.8138 19.7457Z" fill="#CCD6DD"/>
        <path d="M19.447 20.0658C24.083 41.634 13.9595 50.9039 24.1761 54.5001C36.5086 58.8387 43.5694 58.1167 54.7304 54.5001C64.9469 51.1899 58.1359 38.8915 59.5548 20.9172C59.9226 16.2925 19.447 20.0658 19.447 20.0658Z" fill="#CCD6DD"/>
        <path d="M20.7729 33.6878C20.5844 36.1466 18.2982 47.6028 19.3539 50.2432C20.4891 53.0811 23.327 57.6218 39.5985 57.6218C51.5178 57.6218 59.0849 54.0278 60.3154 49.4872C61.3848 45.5368 59.7478 36.8118 59.5594 33.5948" fill="#F4900C"/>
        <path d="M39.9754 36.9049C50.6334 36.9049 59.2733 35.3802 59.2733 33.4994C59.2733 31.6186 50.6334 30.0939 39.9754 30.0939C29.3175 30.0939 20.6775 31.6186 20.6775 33.4994C20.6775 35.3802 29.3175 36.9049 39.9754 36.9049Z" fill="#FFCC4D"/>
        <path d="M56.4239 11.7064C56.4239 11.7064 42.9789 43.2891 42.2774 44.7376C41.4215 46.5085 43.6418 48.9922 45.6148 45.8342C47.5854 42.6761 60.9192 14.735 60.9192 14.735L56.4239 11.7064Z" fill="#C1694F"/>
        <path d="M39.544 27.0857C29.802 27.0857 22.1259 24.7995 19.2403 23.4463C18.6951 23.1907 18.2737 22.729 18.0689 22.1627C17.8641 21.5964 17.8927 20.972 18.1483 20.4268C18.4039 19.8815 18.8656 19.4602 19.4319 19.2554C19.9982 19.0506 20.6226 19.0791 21.1678 19.3347C21.3359 19.4142 38.6654 26.7724 58.7466 19.0827C59.025 18.9761 59.3218 18.9255 59.6198 18.9335C59.9179 18.9416 60.2114 19.0084 60.4837 19.1299C60.756 19.2514 61.0017 19.4254 61.2067 19.6419C61.4117 19.8584 61.5721 20.1131 61.6787 20.3916C61.7853 20.6701 61.836 20.9668 61.8279 21.2648C61.8198 21.5629 61.7531 21.8565 61.6316 22.1287C61.51 22.401 61.336 22.6467 61.1196 22.8517C60.9031 23.0568 60.6483 23.2171 60.3699 23.3237C53.0548 26.1253 45.8646 27.0857 39.544 27.0857Z" fill="white"/>
        <path d="M47.236 33.2406L45.7354 36.746C47.3178 36.7006 49.0205 36.553 50.4667 36.3532L51.5474 34.151C50.1466 34.176 48.7413 33.8876 47.236 33.2406Z" fill="#FFAC33"/>
        <path d="M42.2774 44.7376C41.4215 46.5085 43.6418 48.9923 45.6148 45.8342C46.2686 44.7853 48.178 41.0006 50.4324 36.4191C49.0952 36.5667 47.3561 36.6938 45.7169 36.7846C44.5901 39.4441 43.4436 42.0952 42.2774 44.7376Z" fill="#CC6F00"/>
        <path d="M78.3398 22.4292C76.024 18.8375 66.0868 4.96117 65.6599 4.36407C65.4496 4.07097 65.1725 3.83221 64.8515 3.66757C64.5305 3.50293 64.1749 3.41715 63.8141 3.41734C60.5017 3.41734 53.0005 3.38102 47.3928 3.35377C44.0304 3.33788 41.3468 3.32426 40.6385 3.32426C39.1673 3.32426 37.9595 4.28915 37.6325 5.72855C36.8697 9.08866 41.1016 15.4706 55.5501 22.3997C65.1219 26.988 70.6729 27.9529 73.6447 27.9529C76.9912 27.9529 78.274 26.702 78.7598 25.6531C79.2457 24.5951 79.0867 23.4032 78.3398 22.4292Z" fill="#77B255"/>
        <path d="M59.5933 24.216C66.7131 27.231 71.1221 27.9507 73.6421 27.9507H73.6444C76.9909 27.9507 78.2714 26.6997 78.7572 25.6508C79.2454 24.5951 79.0887 23.4032 78.3395 22.4292C76.8569 20.1293 72.2527 13.618 69.0175 9.0705C70.861 14.9212 71.5398 23.7528 59.5933 24.216Z" fill="#5C913B"/>
        <path d="M64.2405 8.24411C66.3571 8.24411 68.0729 6.52832 68.0729 4.41177C68.0729 2.29523 66.3571 0.579435 64.2405 0.579435C62.124 0.579435 60.4082 2.29523 60.4082 4.41177C60.4082 6.52832 62.124 8.24411 64.2405 8.24411Z" fill="#3E721D"/>
    </g>
    <defs>
        <clipPath id="clip0_154_9724">
            <rect width="81.7324" height="81.7324" fill="white" transform="translate(0.244141 0.579437)"/>
        </clipPath>
    </defs>
</svg>