<svg width="83" height="83" viewBox="0 0 83 83" fill="none" xmlns="http://www.w3.org/2000/svg">
<path d="M19.103 38.8155L17.4041 35.1259L13.2476 18.9668L12.1907 16.4509L13.7145 12.7029C13.7145 12.7029 15.8738 13.0077 17.5208 14.8687C19.5245 17.1382 22.7926 23.9273 22.7926 23.9273L22.1053 18.5712L25.8338 8.90305C25.8338 8.90305 27.4679 8.72797 27.9023 9.17539C28.674 9.96648 29.9903 15.5171 30.4572 17.2744C30.924 19.0316 31.5725 21.4309 32.3895 22.4813C33.2065 23.5318 34.2051 23.7717 34.2051 23.7717L37.1296 12.4759L37.8299 2.23062C37.8299 2.23062 38.8544 2.22414 40.2875 2.52242C41.3704 2.74937 42.0966 3.11898 42.4468 3.55344C42.7969 3.98789 42.8099 10.8937 42.8099 10.8937C42.8099 10.8937 48.9895 5.62844 49.1905 5.6868C49.6185 5.80352 50.9478 6.09531 51.6481 6.86047C52.3484 7.61914 51.7648 10.4334 51.2396 12.3073C50.7143 14.1813 48.8987 20.2702 48.8987 20.2702L50.5393 19.6477L50.9024 19.9978L53.9565 15.3096C53.9565 15.3096 55.0589 15.3031 55.9537 15.7441C56.9264 16.2239 57.51 17.4041 57.51 17.4041L65.3561 6.04992C65.3561 6.04992 65.9526 6.58164 66.4779 7.10687C67.0031 7.63211 67.3727 8.00172 67.3986 8.53344C67.4246 9.05867 65.5311 12.5537 64.6558 14.311C63.7804 16.0683 62.3149 19.5828 62.3149 19.5828L68.6955 14.713C68.6955 14.713 70.8094 15.0113 70.8743 15.7116C70.9326 16.412 69.8108 17.7088 68.6955 19.6412C67.5802 21.5735 65.7127 25.3215 65.0643 26.6054C64.4158 27.8893 65.2977 27.9541 65.2977 27.9541L72.9428 23.1233C72.9428 23.1233 74.5898 23.4605 74.7454 24.2256C74.9205 25.101 73.0271 26.8453 71.795 28.2459C70.563 29.653 67.9304 33.0444 66.5881 35.6835C65.2458 38.3227 64.3445 39.9697 64.3445 39.9697L52.705 51.5184L21.7357 49.6444L19.103 38.8155Z" fill="url(#paint0_radial_1252_80)"/>
<path d="M57.8213 26.0672C57.0431 26.2487 54.5856 30.5025 52.2901 36.9739C50.9089 40.8645 49.9946 45.1183 50.0465 47.1544C50.0984 49.1905 53.172 48.568 53.172 48.568L54.4753 44.3402C54.4753 44.3402 55.9343 39.3796 57.6591 35.677C59.6758 31.3325 62.289 28.5702 62.0945 27.9023C61.8351 27.0074 58.9171 25.8078 57.8213 26.0672ZM65.5441 15.0048C64.4548 15.6403 61.9972 19.7514 61.2645 21.3206C60.5317 22.8898 60.5058 25.8402 61.3099 26.2228C62.302 26.6897 63.4043 23.3567 65.0773 20.5879C66.7502 17.8191 68.728 14.6871 68.728 14.6871C68.728 14.6871 66.7956 14.2721 65.5441 15.0048ZM69.6682 23.1492C68.0017 23.856 64.8957 27.1695 63.8193 28.836C61.8351 31.9161 60.3761 35.3593 59.8509 36.7664C59.3321 38.1735 58.9106 40.1059 60.5317 39.2175C62.1528 38.3291 64.2343 34.1532 66.8994 30.3987C69.9859 26.0412 72.9558 23.0909 72.9558 23.0909C72.9558 23.0909 71.0234 22.5721 69.6682 23.1492ZM62.6716 4.565C62.0296 4.48719 60.2723 9.15594 59.2802 11.3995C58.2881 13.6431 56.9653 16.613 56.9653 16.613C56.9653 16.613 56.2002 22.5202 57.296 22.624C58.3919 22.7277 60.5382 15.5236 62.1399 12.223C63.7026 9.0068 65.3496 6.03047 65.3496 6.03047C65.3496 6.03047 63.9231 4.72062 62.6716 4.565ZM51.1294 16.2628C50.5523 16.8723 50.8765 20.0108 50.8765 20.0108C50.8765 20.0108 53.1201 21.6837 53.5416 21.3141C53.9631 20.9445 53.9825 15.2772 53.9825 15.2772C53.9825 15.2772 52.0696 15.2707 51.1294 16.2628ZM46.493 20.536C45.6825 21.2169 46.2337 24.4072 46.0262 27.2668C45.7149 31.5465 44.4634 40.3134 44.0938 42.8747C43.7242 45.436 43.3611 48.2502 43.3611 48.2502L47.3814 47.6213C47.3814 47.6213 48.9441 35.6705 49.5731 31.0731C50.2021 26.4757 51.1359 19.9589 50.5134 19.5893C49.8844 19.2327 47.4852 19.6995 46.493 20.536ZM46.0067 5.29125C44.9822 5.48578 42.8164 10.8937 42.8164 10.8937C42.8164 10.8937 42.6867 14.7973 42.6867 16.6778C42.6867 18.5583 42.3236 20.8019 42.9461 20.8019C43.5686 20.8019 44.7747 17.203 46.0262 14.0711C47.2777 10.9391 49.197 5.6868 49.197 5.6868C49.197 5.6868 47.4592 5.0189 46.0067 5.29125ZM34.2246 3.31351C33.5178 4.05922 34.6396 5.97859 34.7434 11.2439C34.8471 16.5157 34.1987 23.7652 34.1987 23.7652C34.1987 23.7652 34.7563 23.7263 35.1065 24.8092C35.4048 25.7235 35.8911 31.2806 36.5136 31.0731C37.1426 30.8656 37.9207 27.1566 38.5497 20.8927C39.1787 14.6287 38.9128 9.77844 38.7053 7.79422C38.4978 5.81 37.8234 2.21766 37.8234 2.21766C37.8234 2.21766 35.2686 2.21766 34.2246 3.31351ZM25.8338 8.90305C25.8338 8.90305 22.8186 9.11703 21.9886 10.7381C21.1521 12.3592 21.418 13.1438 21.5736 14.7066C21.7292 16.2693 22.222 19.3883 22.222 19.3883C22.222 19.3883 24.9909 22.8315 26.5017 21.995C28.0126 21.165 25.8338 8.90305 25.8338 8.90305ZM13.7145 12.7029C13.7145 12.7029 12.0416 12.3916 11.0495 12.5991C10.0573 12.8066 10.1092 13.7469 10.5826 14.3759C11.0495 15.0048 13.2088 18.9084 13.2088 18.9084C13.2088 18.9084 13.8507 18.9214 14.6872 19.2327C15.5237 19.5439 16.9567 20.322 16.8984 19.0705C16.7946 16.8853 13.7145 12.7029 13.7145 12.7029ZM18.4287 37.35C18.4287 37.35 15.2773 30.9759 12.9299 27.4743C10.5826 23.9727 8.125 21.2623 8.125 20.6916C8.125 20.1145 9.74609 19.5439 10.6798 19.2845C11.6136 19.0252 13.2412 18.9668 13.2412 18.9668C13.2412 18.9668 17.0994 25.4901 18.6686 29.0435C20.2378 32.597 21.6968 36.734 21.3337 37.2398C21.003 37.6937 18.6621 37.3889 18.4287 37.35ZM20.5491 25.9634C20.3027 26.8777 21.4893 31.0277 22.222 34.0041C22.9548 36.9804 23.8431 40.1123 23.8431 40.1123L26.3461 45.2285L29.1149 44.2364C29.1149 44.2364 27.6559 41.4157 26.8195 38.4977C25.983 35.5668 24.9001 26.4757 23.7848 25.2891C23.0066 24.4526 20.7112 25.3928 20.5491 25.9634ZM29.2187 24.9195C28.5638 25.3474 29.5818 32.2792 30.107 35.1518C30.6323 38.0244 31.7281 41.0526 32.2988 42.4597C32.8759 43.8668 34.5423 47.4202 34.5423 47.4202C34.5423 47.4202 36.2672 49.4563 36.3191 49.2488C36.3709 49.0413 37.1037 46.48 37.1037 46.48C37.1037 46.48 34.8017 39.6909 34.4321 36.7664C34.069 33.842 33.4919 24.9713 32.9213 24.6601C32.3506 24.3488 30.2627 24.2451 29.2187 24.9195ZM40.8581 25.0751C40.0735 25.8013 39.2954 35.4112 38.9777 38.9581C38.6599 42.5051 38.4006 47.725 38.4006 47.725L41.8956 47.4656C41.8956 47.4656 43.199 34.5747 43.4065 32.9017C43.614 31.2287 44.5542 27.4224 44.0873 25.9051C43.6205 24.4007 41.5325 24.4526 40.8581 25.0751Z" fill="#FBDE93"/>
<path d="M17.391 38.5366C17.1705 39.0359 23.9856 76.3276 24.0958 76.8852C24.2061 77.4429 23.9856 77.9487 25.0425 78.448C26.106 78.9473 27.766 79.2131 28.8294 79.3298C29.8929 79.4401 37.2137 79.4531 37.2721 78.5647C37.3304 77.6698 59.2152 45.7927 59.2152 45.7927C59.2152 45.7927 63.2485 39.0295 62.9697 38.4718C62.6908 37.9141 61.6014 38.1735 60.4148 38.9841C59.2282 39.8011 58.1323 41.8177 54.7993 44.0548C51.1875 46.48 46.4021 46.9923 41.5907 46.9339C37.1554 46.8755 31.8836 46.0715 28.1096 43.2767C24.7896 40.8127 23.8105 39.0359 20.8536 38.2513C18.2469 37.5575 17.391 38.5366 17.391 38.5366Z" fill="#FD703F"/>
<path d="M22.5461 40.9748L28.7322 79.3428C28.7322 79.3428 36.105 80.4062 41.8501 80.5165C47.6018 80.6267 54.4558 79.4271 54.4558 79.4271L59.4358 62.5937L63.6636 40.3847C63.6636 40.3847 62.6196 39.3407 61.4459 40.2031C60.5446 40.8645 57.7628 45.1702 52.8476 47.0701C47.3035 49.2099 37.3111 49.3655 31.0731 46.7329C25.3539 44.3272 23.6096 41.1952 22.5461 40.9748Z" fill="#FF2A23"/>
<path d="M58.0417 78.247C56.7837 78.9991 53.8528 79.5049 53.8528 79.5049C53.8528 79.5049 56.7578 65.382 58.3724 58.0092C59.987 50.6365 62.3149 38.167 62.3149 38.167C62.3149 38.167 63.2486 38.0179 64.2083 38.1346C65.2977 38.2708 65.9461 38.5885 66.1666 38.9322C66.5232 39.4898 64.3769 49.9038 62.276 60.0713C60.3566 69.4088 58.7096 77.8514 58.0417 78.247Z" fill="#DC0D25"/>
<defs>
<radialGradient id="paint0_radial_1252_80" cx="0" cy="0" r="1" gradientUnits="userSpaceOnUse" gradientTransform="translate(41.8807 -5.1045) scale(53.9033 53.9033)">
<stop offset="0.447" stop-color="#FCC216"/>
<stop offset="0.59" stop-color="#FABB16"/>
<stop offset="0.794" stop-color="#F3A814"/>
<stop offset="0.921" stop-color="#ED9913"/>
</radialGradient>
</defs>
</svg>
