<svg xmlns="http://www.w3.org/2000/svg" width="84" height="84" viewBox="0 0 84 84" fill="none">
    <path d="M48.7197 78.2693H34.6198C14.4239 78.2693 5.22119 64.6985 5.22119 47.9924V33.8586H78.1183V47.9924C78.1183 64.6985 69.2388 78.2693 48.7197 78.2693Z" fill="url(#paint0_linear_154_9741)"/>
    <path d="M57.2682 18.7944C65.5822 18.7944 72.3324 25.5446 72.3324 33.8586C72.3324 42.1726 65.5822 48.9228 57.2682 48.9228H26.0713C17.7573 48.9228 11.0071 42.1726 11.0071 33.8586C11.0071 25.5446 17.7573 18.7944 26.0713 18.7944H57.2682Z" fill="url(#paint1_linear_154_9741)"/>
    <path d="M57.2682 15.719H26.0713C14.5516 15.719 5.22119 24.3562 5.22119 35.021C5.22119 45.6858 14.5516 54.323 26.0713 54.323H57.2682C68.7879 54.323 78.1183 45.6858 78.1183 35.021C78.1183 24.3562 68.7879 15.719 57.2682 15.719Z" fill="url(#paint2_linear_154_9741)"/>
    <g filter="url(#filter0_f_154_9741)">
        <path d="M56.7417 16.209H26.1051C14.7939 16.209 5.62769 24.8461 5.62769 35.5109C5.62769 46.1758 14.7913 54.8129 26.1051 54.8129H56.7417C68.0555 54.8129 77.2191 46.1758 77.2191 35.5109C77.2191 24.8461 68.0555 16.209 56.7417 16.209Z" fill="#DDDAE4"/>
    </g>
    <path d="M70.826 29.8085C67.4926 23.3319 62.6423 23.2928 58.4462 20.3999C54.2502 17.5069 54.0286 15.7008 51.6387 12.6958C50.4522 11.1991 48.9428 9.99009 47.2233 9.15895C45.5038 8.32782 43.6187 7.89612 41.7088 7.89612C39.799 7.89612 37.9138 8.32782 36.1943 9.15895C34.4748 9.99009 32.9654 11.1991 31.779 12.6958C28.8495 16.3706 28.5967 18.9768 25.3389 20.7283C20.5382 23.3084 15.9042 22.0965 12.55 31.0725C10.908 35.4667 11.3667 38.6046 12.55 41.2526C16.23 49.4675 28.31 50.3328 41.8313 50.3328C55.3526 50.3328 60.685 50.0461 66.2259 46.4234C72.6973 42.1882 73.2915 34.604 70.826 29.8085Z" fill="url(#paint3_linear_154_9741)"/>
    <path d="M70.826 29.8085C67.4926 23.3319 62.6423 23.2928 58.4462 20.3999C54.2502 17.5069 54.0286 15.7008 51.6387 12.6958C50.4522 11.1991 48.9428 9.99009 47.2233 9.15895C45.5038 8.32782 43.6187 7.89612 41.7088 7.89612C39.799 7.89612 37.9138 8.32782 36.1943 9.15895C34.4748 9.99009 32.9654 11.1991 31.779 12.6958C28.8495 16.3706 28.5967 18.9768 25.3389 20.7283C20.5382 23.3084 15.9042 22.0965 12.55 31.0725C10.908 35.4667 11.3667 38.6046 12.55 41.2526C16.23 49.4675 28.31 50.3328 41.8313 50.3328C55.3526 50.3328 60.685 50.0461 66.2259 46.4234C72.6973 42.1882 73.2915 34.604 70.826 29.8085Z" fill="url(#paint4_radial_154_9741)"/>
    <path d="M70.826 29.8085C67.4926 23.3319 62.6423 23.2928 58.4462 20.3999C54.2502 17.5069 54.0286 15.7008 51.6387 12.6958C50.4522 11.1991 48.9428 9.99009 47.2233 9.15895C45.5038 8.32782 43.6187 7.89612 41.7088 7.89612C39.799 7.89612 37.9138 8.32782 36.1943 9.15895C34.4748 9.99009 32.9654 11.1991 31.779 12.6958C28.8495 16.3706 28.5967 18.9768 25.3389 20.7283C20.5382 23.3084 15.9042 22.0965 12.55 31.0725C10.908 35.4667 11.3667 38.6046 12.55 41.2526C16.23 49.4675 28.31 50.3328 41.8313 50.3328C55.3526 50.3328 60.685 50.0461 66.2259 46.4234C72.6973 42.1882 73.2915 34.604 70.826 29.8085Z" fill="url(#paint5_radial_154_9741)"/>
    <g filter="url(#filter1_f_154_9741)">
        <path d="M70.7844 39.3682C69.4708 37.4969 63.8126 33.1888 56.9972 32.936C49.6215 32.6623 46.236 36.9679 41.6933 36.9679C38.5449 36.9679 30.356 32.6753 26.431 32.936C17.7079 33.5615 15.3518 36.762 13.04 39.939C14.6351 44.255 18.7269 47.2756 25.5527 48.5318C31.9693 49.7125 50.9116 49.9731 56.7575 49.0218C62.6033 48.0705 68.4335 45.4382 70.7844 39.3682Z" fill="url(#paint6_linear_154_9741)"/>
    </g>
    <path d="M64.7376 33.2331C66.7993 30.8375 67.9504 27.7917 67.9885 24.6313C68.0267 21.4709 66.9494 18.3982 64.9461 15.9536C64.764 15.7264 64.5336 15.5425 64.2717 15.4154C64.0097 15.2882 63.7227 15.221 63.4315 15.2185C63.1404 15.216 62.8523 15.2783 62.5882 15.4009C62.3241 15.5236 62.0906 15.7034 61.9046 15.9275L47.2001 33.0246C47.0109 33.2456 46.8722 33.5053 46.7938 33.7855C46.7153 34.0657 46.699 34.3596 46.7459 34.6467C46.7928 34.9339 46.9018 35.2073 47.0653 35.448C47.2289 35.6886 47.443 35.8907 47.6927 36.04C50.4139 37.6381 53.609 38.2323 56.7228 37.7196C59.8367 37.2068 62.6725 35.6194 64.7376 33.2331Z" fill="url(#paint7_linear_154_9741)"/>
    <g filter="url(#filter2_f_154_9741)">
        <path d="M64.279 32.85C66.1842 30.5663 67.2437 27.6954 67.2789 24.7215C67.314 21.7476 66.3226 18.8525 64.4718 16.5244C63.7525 15.6148 62.8638 15.7868 62.121 16.6964L48.5397 32.85C47.797 33.7361 47.5572 34.8881 48.5397 35.5006C51.0479 37.0113 54.0138 37.5746 56.9012 37.0884C59.7885 36.6022 62.4039 35.0988 64.279 32.85Z" fill="url(#paint8_linear_154_9741)"/>
    </g>
    <g filter="url(#filter3_f_154_9741)">
        <path d="M56.0069 23.2876C56.2667 23.5032 56.6 23.6095 56.9367 23.5841C57.2733 23.5588 57.587 23.4038 57.8117 23.1518C58.0363 22.8998 58.1544 22.5704 58.141 22.2331C58.1277 21.8958 57.9839 21.5768 57.74 21.3433L56.0069 23.2876ZM43.3535 9.24506C43.1864 9.19801 43.0117 9.1848 42.8395 9.20619C42.6673 9.22758 42.5011 9.28315 42.3507 9.36963C42.2002 9.45611 42.0686 9.57177 41.9635 9.70981C41.8583 9.84786 41.7818 10.0055 41.7384 10.1735C41.695 10.3415 41.6856 10.5165 41.7108 10.6882C41.7359 10.8599 41.7951 11.0248 41.8848 11.1733C41.9746 11.3219 42.0931 11.451 42.2334 11.5531C42.3737 11.6552 42.533 11.7282 42.7019 11.7679L43.3535 9.24506ZM57.74 21.3433C55.7306 19.5476 54.1173 18.3279 51.3807 14.4758L49.254 15.9848C52.1809 20.1027 54.0026 21.4997 56.0069 23.2876L57.74 21.3433ZM51.3807 14.4758C49.1289 11.3066 45.3916 9.76892 43.3535 9.24506L42.7019 11.7679C44.4663 12.2214 47.5131 13.5324 49.254 15.9848L51.3807 14.4758Z" fill="url(#paint9_radial_154_9741)"/>
    </g>
    <path d="M60.1429 29.123C62.7491 26.0997 62.4103 21.5388 59.3871 18.9325L49.9524 29.8788C52.9757 32.5111 57.5366 32.1463 60.1429 29.123Z" fill="url(#paint10_linear_154_9741)"/>
    <path d="M71.3553 40.1527C70.0104 38.2788 64.2324 33.9707 57.2658 33.7178C49.7259 33.4442 46.27 37.7497 41.6283 37.7497C38.4095 37.7497 30.0434 33.4572 26.0298 33.7178C17.1164 34.3433 14.7108 37.5464 12.3469 40.7235C13.9758 45.0394 18.1589 48.0601 25.1358 49.3163C31.6906 50.497 51.0447 50.755 57.0208 49.8037C62.997 48.8524 68.9523 46.2201 71.3553 40.1527Z" fill="url(#paint11_linear_154_9741)"/>
    <g filter="url(#filter4_f_154_9741)">
        <path d="M33.5642 38.8496C35.4094 39.6653 39.3475 40.9685 44.3958 40.9685C49.4468 40.9685 50.8307 36.8141 58.1621 37.1373C64.0262 37.3979 68.5871 40.369 69.4003 41.62" stroke="url(#paint12_radial_154_9741)" stroke-width="0.834004" stroke-linecap="round"/>
    </g>
    <g filter="url(#filter5_f_154_9741)">
        <path d="M34.0779 49.3528C35.3082 49.3528 36.4882 48.8641 37.3582 47.9941C38.2282 47.124 38.717 45.9441 38.717 44.7137C38.717 43.4833 38.2282 42.3033 37.3582 41.4333C36.4882 40.5633 35.3082 40.0745 34.0779 40.0745C32.8475 40.0745 31.6675 40.5633 30.7975 41.4333C29.9275 42.3033 29.4387 43.4833 29.4387 44.7137C29.4387 45.9441 29.9275 47.124 30.7975 47.9941C31.6675 48.8641 32.8475 49.3528 34.0779 49.3528Z" fill="#447437"/>
    </g>
    <path d="M23.1678 43.1708C29.2404 45.8552 36.2512 43.7181 39.8218 38.3753C40.4995 37.3588 40.1085 35.9514 38.9878 35.4302L18.3202 26.2822C17.1734 25.761 15.8703 26.4125 15.5575 27.6114C14.0198 33.8404 17.0952 40.4863 23.1678 43.1708Z" fill="url(#paint13_linear_154_9741)"/>
    <g filter="url(#filter6_f_154_9741)">
        <path d="M23.6655 42.2925C26.2423 43.4368 29.1399 43.6363 31.8492 42.856C34.5585 42.0757 36.9061 40.3656 38.4795 38.026C39.0816 37.1217 38.4717 36.3007 37.4735 35.8368L19.0889 27.6974C18.0673 27.2335 17.1733 27.3847 16.8945 28.4506C15.5262 33.9915 18.2627 39.9051 23.6655 42.2925Z" fill="#CF336F"/>
        <path d="M23.6655 42.2925C26.2423 43.4368 29.1399 43.6363 31.8492 42.856C34.5585 42.0757 36.9061 40.3656 38.4795 38.026C39.0816 37.1217 38.4717 36.3007 37.4735 35.8368L19.0889 27.6974C18.0673 27.2335 17.1733 27.3847 16.8945 28.4506C15.5262 33.9915 18.2627 39.9051 23.6655 42.2925Z" fill="url(#paint14_radial_154_9741)"/>
    </g>
    <path d="M25.7063 37.6794C27.5094 38.4796 29.5565 38.531 31.3976 37.8224C33.2386 37.1137 34.7229 35.703 35.5241 33.9003L21.9246 27.8642C21.1254 29.6674 21.0748 31.7141 21.7839 33.5545C22.493 35.395 23.9038 36.8786 25.7063 37.6794Z" fill="url(#paint15_linear_154_9741)"/>
    <g filter="url(#filter7_f_154_9741)">
        <path d="M35.871 31.3566C38.9855 31.3566 42.6603 28.4011 42.6603 25.284C42.6603 22.1669 40.1322 19.6389 37.0151 19.6389C33.8981 19.6389 30.2258 23.3893 30.2258 26.5064C30.2258 29.6234 32.7539 31.3566 35.8684 31.3566" fill="#346433"/>
    </g>
    <path d="M38.1122 28.9692C39.3793 28.9692 40.5944 28.4659 41.4903 27.57C42.3862 26.6741 42.8895 25.459 42.8895 24.192C42.8895 22.9249 42.3862 21.7098 41.4903 20.8139C40.5944 19.918 39.3793 19.4147 38.1122 19.4147C36.8452 19.4147 35.6301 19.918 34.7342 20.8139C33.8383 21.7098 33.335 22.9249 33.335 24.192C33.335 25.459 33.8383 26.6741 34.7342 27.57C35.6301 28.4659 36.8452 28.9692 38.1122 28.9692Z" fill="url(#paint16_radial_154_9741)"/>
    <path d="M35.2375 48.6622C35.8468 48.6622 36.45 48.5422 37.0129 48.309C37.5757 48.0759 38.0871 47.7342 38.5179 47.3034C38.9487 46.8726 39.2904 46.3612 39.5235 45.7983C39.7567 45.2355 39.8767 44.6322 39.8767 44.023C39.8767 43.4138 39.7567 42.8105 39.5235 42.2477C39.2904 41.6849 38.9487 41.1734 38.5179 40.7427C38.0871 40.3119 37.5757 39.9702 37.0129 39.737C36.45 39.5039 35.8468 39.3839 35.2375 39.3839C34.0072 39.3839 32.8272 39.8726 31.9572 40.7427C31.0872 41.6127 30.5984 42.7926 30.5984 44.023C30.5984 45.2534 31.0872 46.4334 31.9572 47.3034C32.8272 48.1734 34.0072 48.6622 35.2375 48.6622Z" fill="url(#paint17_radial_154_9741)"/>
    <g filter="url(#filter8_f_154_9741)">
        <path d="M60.5235 44.7137C63.1558 44.7137 66.4137 42.1934 66.4137 39.5585C66.4137 36.9262 64.2765 34.789 61.6442 34.789C59.0119 34.789 55.8792 37.7628 55.8792 40.3977C55.8792 43.03 57.8886 44.7137 60.5235 44.7137Z" fill="#588D2F"/>
    </g>
    <path d="M63.0019 43.2985C63.6282 43.2985 64.2484 43.1751 64.8271 42.9354C65.4057 42.6957 65.9315 42.3444 66.3744 41.9015C66.8173 41.4586 67.1686 40.9329 67.4083 40.3542C67.648 39.7755 67.7713 39.1553 67.7713 38.529C67.7713 37.9027 67.648 37.2825 67.4083 36.7038C67.1686 36.1252 66.8173 35.5994 66.3744 35.1565C65.9315 34.7136 65.4057 34.3623 64.8271 34.1226C64.2484 33.8829 63.6282 33.7595 63.0019 33.7595C61.7369 33.7595 60.5238 34.262 59.6294 35.1565C58.7349 36.0509 58.2324 37.2641 58.2324 38.529C58.2324 39.7939 58.7349 41.0071 59.6294 41.9015C60.5238 42.796 61.7369 43.2985 63.0019 43.2985Z" fill="url(#paint18_radial_154_9741)"/>
    <defs>
        <filter id="filter0_f_154_9741" x="5.21068" y="15.792" width="72.4253" height="39.4379" filterUnits="userSpaceOnUse" color-interpolation-filters="sRGB">
            <feFlood flood-opacity="0" result="BackgroundImageFix"/>
            <feBlend mode="normal" in="SourceGraphic" in2="BackgroundImageFix" result="shape"/>
            <feGaussianBlur stdDeviation="0.208501" result="effect1_foregroundBlur_154_9741"/>
        </filter>
        <filter id="filter1_f_154_9741" x="12.206" y="32.0895" width="59.4124" height="18.3454" filterUnits="userSpaceOnUse" color-interpolation-filters="sRGB">
            <feFlood flood-opacity="0" result="BackgroundImageFix"/>
            <feBlend mode="normal" in="SourceGraphic" in2="BackgroundImageFix" result="shape"/>
            <feGaussianBlur stdDeviation="0.417002" result="effect1_foregroundBlur_154_9741"/>
        </filter>
        <filter id="filter2_f_154_9741" x="47.6811" y="15.7136" width="19.8071" height="21.7535" filterUnits="userSpaceOnUse" color-interpolation-filters="sRGB">
            <feFlood flood-opacity="0" result="BackgroundImageFix"/>
            <feBlend mode="normal" in="SourceGraphic" in2="BackgroundImageFix" result="shape"/>
            <feGaussianBlur stdDeviation="0.10425" result="effect1_foregroundBlur_154_9741"/>
        </filter>
        <filter id="filter3_f_154_9741" x="41.28" y="8.77925" width="17.2791" height="15.2256" filterUnits="userSpaceOnUse" color-interpolation-filters="sRGB">
            <feFlood flood-opacity="0" result="BackgroundImageFix"/>
            <feBlend mode="normal" in="SourceGraphic" in2="BackgroundImageFix" result="shape"/>
            <feGaussianBlur stdDeviation="0.208501" result="effect1_foregroundBlur_154_9741"/>
        </filter>
        <filter id="filter4_f_154_9741" x="32.7302" y="36.2853" width="37.5042" height="6.16873" filterUnits="userSpaceOnUse" color-interpolation-filters="sRGB">
            <feFlood flood-opacity="0" result="BackgroundImageFix"/>
            <feBlend mode="normal" in="SourceGraphic" in2="BackgroundImageFix" result="shape"/>
            <feGaussianBlur stdDeviation="0.208501" result="effect1_foregroundBlur_154_9741"/>
        </filter>
        <filter id="filter5_f_154_9741" x="28.6047" y="39.2405" width="10.9463" height="10.9463" filterUnits="userSpaceOnUse" color-interpolation-filters="sRGB">
            <feFlood flood-opacity="0" result="BackgroundImageFix"/>
            <feBlend mode="normal" in="SourceGraphic" in2="BackgroundImageFix" result="shape"/>
            <feGaussianBlur stdDeviation="0.417002" result="effect1_foregroundBlur_154_9741"/>
        </filter>
        <filter id="filter6_f_154_9741" x="16.3369" y="27.2407" width="22.5899" height="16.2921" filterUnits="userSpaceOnUse" color-interpolation-filters="sRGB">
            <feFlood flood-opacity="0" result="BackgroundImageFix"/>
            <feBlend mode="normal" in="SourceGraphic" in2="BackgroundImageFix" result="shape"/>
            <feGaussianBlur stdDeviation="0.10425" result="effect1_foregroundBlur_154_9741"/>
        </filter>
        <filter id="filter7_f_154_9741" x="29.3918" y="18.8049" width="14.1026" height="13.3858" filterUnits="userSpaceOnUse" color-interpolation-filters="sRGB">
            <feFlood flood-opacity="0" result="BackgroundImageFix"/>
            <feBlend mode="normal" in="SourceGraphic" in2="BackgroundImageFix" result="shape"/>
            <feGaussianBlur stdDeviation="0.417002" result="effect1_foregroundBlur_154_9741"/>
        </filter>
        <filter id="filter8_f_154_9741" x="55.4621" y="34.372" width="11.3684" height="10.7586" filterUnits="userSpaceOnUse" color-interpolation-filters="sRGB">
            <feFlood flood-opacity="0" result="BackgroundImageFix"/>
            <feBlend mode="normal" in="SourceGraphic" in2="BackgroundImageFix" result="shape"/>
            <feGaussianBlur stdDeviation="0.208501" result="effect1_foregroundBlur_154_9741"/>
        </filter>
        <linearGradient id="paint0_linear_154_9741" x1="5.22119" y1="52.5325" x2="78.1183" y2="52.5325" gradientUnits="userSpaceOnUse">
            <stop stop-color="#BBBAC0"/>
            <stop offset="0.125" stop-color="#BCB5C9"/>
            <stop offset="0.264" stop-color="#BDB2CD"/>
            <stop offset="0.509" stop-color="#BBADCD"/>
            <stop offset="0.751" stop-color="#BAADCC"/>
            <stop offset="0.831" stop-color="#BFB5CE"/>
            <stop offset="1" stop-color="#D8D7DE"/>
        </linearGradient>
        <linearGradient id="paint1_linear_154_9741" x1="10.9967" y1="33.8612" x2="72.3428" y2="33.8612" gradientUnits="userSpaceOnUse">
            <stop stop-color="#5E669C"/>
            <stop offset="1" stop-color="#513468"/>
        </linearGradient>
        <linearGradient id="paint2_linear_154_9741" x1="5.22119" y1="30.0535" x2="76.7318" y2="30.0535" gradientUnits="userSpaceOnUse">
            <stop stop-color="#B5B5BA"/>
            <stop offset="1" stop-color="#F5F6FB"/>
        </linearGradient>
        <linearGradient id="paint3_linear_154_9741" x1="11.484" y1="24.8409" x2="74.6129" y2="24.8409" gradientUnits="userSpaceOnUse">
            <stop stop-color="#1A4A2D"/>
            <stop offset="0.319" stop-color="#437943"/>
            <stop offset="0.536" stop-color="#5C9248"/>
            <stop offset="0.85" stop-color="#5F9231"/>
            <stop offset="0.954" stop-color="#3C8511"/>
        </linearGradient>
        <radialGradient id="paint4_radial_154_9741" cx="0" cy="0" r="1" gradientUnits="userSpaceOnUse" gradientTransform="translate(64.352 7.90023) rotate(127.789) scale(28.4445 24.9956)">
            <stop stop-color="#5E9B4B"/>
            <stop offset="1" stop-color="#67A257" stop-opacity="0"/>
        </radialGradient>
        <radialGradient id="paint5_radial_154_9741" cx="0" cy="0" r="1" gradientUnits="userSpaceOnUse" gradientTransform="translate(41.8261 40.6427) rotate(90) scale(9.69203 36.9318)">
            <stop stop-color="#306420"/>
            <stop offset="1" stop-color="#396929" stop-opacity="0"/>
        </radialGradient>
        <linearGradient id="paint6_linear_154_9741" x1="14.1946" y1="39.0138" x2="70.7844" y2="39.0138" gradientUnits="userSpaceOnUse">
            <stop stop-color="#154428"/>
            <stop offset="0.513" stop-color="#376728"/>
            <stop offset="1" stop-color="#3B830F"/>
        </linearGradient>
        <linearGradient id="paint7_linear_154_9741" x1="64.1877" y1="25.4925" x2="57.3541" y2="19.9542" gradientUnits="userSpaceOnUse">
            <stop stop-color="#F05879"/>
            <stop offset="1" stop-color="#9B2938"/>
        </linearGradient>
        <linearGradient id="paint8_linear_154_9741" x1="65.126" y1="18.4556" x2="48.6388" y2="35.6257" gradientUnits="userSpaceOnUse">
            <stop stop-color="#D7355D"/>
            <stop offset="0.428" stop-color="#D13464"/>
            <stop offset="0.831" stop-color="#BB3463"/>
            <stop offset="1" stop-color="#A82B5B"/>
        </linearGradient>
        <radialGradient id="paint9_radial_154_9741" cx="0" cy="0" r="1" gradientUnits="userSpaceOnUse" gradientTransform="translate(50.6849 16.4123) rotate(180) scale(9.77348 11.4586)">
            <stop stop-color="#86B76D"/>
            <stop offset="1" stop-color="#87BB71" stop-opacity="0"/>
        </radialGradient>
        <linearGradient id="paint10_linear_154_9741" x1="54.4143" y1="23.8636" x2="60.1168" y2="28.7503" gradientUnits="userSpaceOnUse">
            <stop offset="0.056" stop-color="#962239"/>
            <stop offset="0.313" stop-color="#AE3153"/>
        </linearGradient>
        <linearGradient id="paint11_linear_154_9741" x1="12.3469" y1="43.7363" x2="71.3553" y2="43.7363" gradientUnits="userSpaceOnUse">
            <stop stop-color="#4B7740"/>
            <stop offset="0.696" stop-color="#66933A"/>
        </linearGradient>
        <radialGradient id="paint12_radial_154_9741" cx="0" cy="0" r="1" gradientUnits="userSpaceOnUse" gradientTransform="translate(64.352 39.4933) rotate(127.618) scale(17.0792 80.1748)">
            <stop stop-color="#91BA60"/>
            <stop offset="0.272" stop-color="#74A048"/>
            <stop offset="1" stop-color="#709D4A" stop-opacity="0"/>
        </radialGradient>
        <linearGradient id="paint13_linear_154_9741" x1="21.4294" y1="42.1882" x2="26.9677" y2="30.4601" gradientUnits="userSpaceOnUse">
            <stop offset="0.873" stop-color="#AB2C59"/>
            <stop offset="1" stop-color="#E0427A"/>
        </linearGradient>
        <radialGradient id="paint14_radial_154_9741" cx="0" cy="0" r="1" gradientUnits="userSpaceOnUse" gradientTransform="translate(34.5414 43.7363) rotate(172.875) scale(5.25309 5.81293)">
            <stop offset="0.66" stop-color="#AD1A46"/>
            <stop offset="0.885" stop-color="#AE1A49" stop-opacity="0"/>
        </radialGradient>
        <linearGradient id="paint15_linear_154_9741" x1="28.4038" y1="30.8692" x2="25.6646" y2="37.6273" gradientUnits="userSpaceOnUse">
            <stop stop-color="#C34765"/>
            <stop offset="0.176" stop-color="#B03256"/>
        </linearGradient>
        <radialGradient id="paint16_radial_154_9741" cx="0" cy="0" r="1" gradientUnits="userSpaceOnUse" gradientTransform="translate(41.0567 22.0754) rotate(135.764) scale(8.63939)">
            <stop offset="0.142" stop-color="#FFEC56"/>
            <stop offset="0.502" stop-color="#F5D03B"/>
            <stop offset="1" stop-color="#AC831E"/>
        </radialGradient>
        <radialGradient id="paint17_radial_154_9741" cx="0" cy="0" r="1" gradientUnits="userSpaceOnUse" gradientTransform="translate(38.0998 41.9641) rotate(135.764) scale(8.39057)">
            <stop offset="0.142" stop-color="#FFDB57"/>
            <stop offset="0.502" stop-color="#F3C046"/>
            <stop offset="1" stop-color="#BA8544"/>
        </radialGradient>
        <radialGradient id="paint18_radial_154_9741" cx="0" cy="0" r="1" gradientUnits="userSpaceOnUse" gradientTransform="translate(65.9392 36.4093) rotate(135.764) scale(8.62456)">
            <stop offset="0.142" stop-color="#FFE75C"/>
            <stop offset="0.502" stop-color="#ECBF40"/>
            <stop offset="1" stop-color="#B28433"/>
        </radialGradient>
    </defs>
</svg>