<svg xmlns="http://www.w3.org/2000/svg" width="99" height="98" viewBox="0 0 99 98" fill="none">
    <path d="M49.6627 30.2251C25.2681 30.2251 3.58398 39.6062 3.58398 54.6197C3.58398 65.8791 14.426 75.2602 30.6891 75.2602C40.0512 75.2602 49.9635 69.6088 57.0542 69.6088C57.3072 69.6088 57.5539 69.616 57.7942 69.6305C68.3896 70.2675 68.6363 79.0143 82.1888 79.0143C88.5341 79.0143 95.7414 73.3845 95.7414 60.2494C95.7414 43.3602 76.7678 30.2251 49.6627 30.2251Z" fill="#FFD983"/>
    <path d="M90.3204 49.1987H95.7414V60.0407H90.3204V49.1987ZM3.58398 43.7776H9.00501V54.6197H3.58398V43.7776Z" fill="#FFD983"/>
    <path d="M82.189 66.2966C76.0334 66.2966 73.2931 64.2501 70.1137 61.8839C67.2161 59.7236 63.931 57.2787 58.0302 56.9209C57.7053 56.9012 57.3799 56.8913 57.0544 56.8911C53.1702 56.8911 48.9825 58.2003 44.5508 59.5908C39.9104 61.0409 35.1128 62.5425 30.692 62.5425C16.5566 62.5425 6.29736 54.6495 6.29736 43.7777C6.29736 29.1517 28.6428 21.2587 49.6656 21.2587C74.7947 21.2587 93.0337 33.0955 93.0337 49.4074C93.031 61.7971 86.5448 66.2966 82.189 66.2966Z" fill="#A0041E"/>
    <path d="M49.6627 23.1371C73.2197 23.1371 90.3204 34.1851 90.3204 49.4074C90.3204 60.6397 84.7367 64.4182 82.1888 64.4182C77.2177 64.4182 75.1821 62.903 72.0976 60.6045C69.0266 58.3168 65.2048 55.4681 58.2631 55.0506C57.8607 55.0252 57.4575 55.0125 57.0542 55.0127C52.5873 55.0127 48.1394 56.4059 43.4339 57.8777C39.0537 59.2492 34.5272 60.6641 30.6891 60.6641C19.9121 60.6641 9.00501 54.8609 9.00501 43.7776C9.00501 30.3714 29.9545 23.1371 49.6627 23.1371ZM49.6627 19.383C25.2681 19.383 3.58398 28.7641 3.58398 43.7776C3.58398 55.0371 14.426 64.4182 30.6891 64.4182C40.0512 64.4182 49.9635 58.7668 57.0542 58.7668C57.3072 58.7668 57.5539 58.774 57.7942 58.7884C68.3896 59.4254 68.6363 68.1722 82.1888 68.1722C88.5341 68.1722 95.7414 62.5425 95.7414 49.4074C95.7414 32.5182 76.7678 19.383 49.6627 19.383Z" fill="#FFE8B6"/>
    <path d="M44.6782 23.2943C44.6782 23.2943 52.3734 23.1371 57.7944 26.8884C60.5049 28.7641 58.7024 32.9871 58.7024 32.9871L63.2154 34.3965C63.2154 34.3965 63.0474 32.1333 71.3469 30.6425C77.4483 29.5474 83.6581 34.3965 83.6581 34.3965C83.6581 34.3965 76.768 25.0127 63.2154 23.1371C49.6629 21.2587 44.6782 23.2943 44.6782 23.2943Z" fill="#FFE8B6"/>
    <path d="M68.6362 38.1479C68.6362 42.2923 63.7817 45.6533 57.7942 45.6533C51.8067 45.6533 46.9521 42.2923 46.9521 38.1479C46.9521 34.0035 51.8067 30.6425 57.7942 30.6425C63.7817 30.6425 68.6362 34.0035 68.6362 38.1479Z" fill="#E6E7E8"/>
    <path d="M63.2151 38.1479C63.2151 40.2215 60.7865 41.902 57.7941 41.902C54.8017 41.902 52.373 40.2215 52.373 38.1479C52.373 36.0744 54.8017 34.3966 57.7941 34.3966C60.7865 34.3966 63.2151 36.0744 63.2151 38.1479Z" fill="#A7A9AC"/>
</svg>