<svg xmlns="http://www.w3.org/2000/svg" width="84" height="83" viewBox="0 0 84 83" fill="none">
    <path d="M45.3406 7.24456C37.0388 5.78029 32.0075 10.6956 31.2979 18.6748C31.1431 20.4036 29.7627 21.9259 28.7112 23.2869C25.1828 27.8732 21.5641 32.6724 17.8615 37.1491C14.6492 41.0258 11.8948 45.2315 9.06948 49.3856C3.19308 58.068 0.870901 64.7894 4.14775 75.1038C4.86376 77.3743 6.50219 81.0834 9.45006 80.9415C12.3979 80.806 12.8624 77.0583 13.3978 74.9232C13.6687 73.8266 13.9912 72.5236 14.8943 71.7366C15.3781 71.3173 15.7845 71.4528 16.3263 71.3044C16.8746 71.1561 16.9197 71.0464 17.3519 70.7303C18.5582 69.8466 18.8871 70.2724 19.816 71.1819C21.1513 72.4913 23.3638 72.3881 25.0538 72.0527C26.0407 71.8592 26.3633 71.6463 26.9503 70.911C27.5824 70.1111 28.55 69.5886 29.1112 68.7371C29.6917 67.8599 29.7111 67.5502 30.7819 67.1955C33.0653 66.4408 33.691 68.0276 35.323 69.1435C36.9227 70.2401 39.0965 70.6658 40.9865 70.2272C41.9025 70.0143 42.167 69.7628 42.6185 69.0145C43.1539 68.1179 43.8506 67.5115 44.4956 66.6988C45.2052 65.7957 45.7728 65.2474 46.7468 64.6346C47.6306 64.0799 48.424 63.8348 49.4238 63.5187C51.2557 62.9381 53.0232 62.1318 54.8422 61.5255C57.2095 60.7321 59.5769 59.9387 61.9442 59.1388C66.6015 57.552 71.2458 55.9329 75.8515 54.2235C78.4833 53.2495 81.4312 52.4754 82.1149 49.405C82.3471 48.3665 82.5213 47.315 82.631 46.2572C83.8372 34.7495 77.019 24.5383 68.2205 17.675C63.7697 14.2046 58.7512 11.418 53.4489 9.45708C51.417 8.71527 48.4627 7.7993 45.3406 7.24456Z" fill="#FFE082"/>
    <path d="M34.575 53.0108C34.3041 53.0108 34.046 52.9979 33.7816 52.9785C31.2401 52.7334 29.2662 50.4758 29.1824 47.7149C29.1372 46.0959 29.879 44.5929 31.2207 43.5995C31.5562 43.3479 32.1109 42.9803 32.7301 42.7481C32.6076 42.4578 32.4979 42.1288 32.4076 41.7676C32.1625 40.7742 32.2399 39.8066 32.6398 38.9616C33.3042 37.549 34.7362 36.5878 36.6714 36.2266C37.0778 36.1556 37.5229 36.1169 37.9808 36.1169C38.8323 36.1169 40.9545 36.2718 42.2382 37.6973C42.6768 38.1811 42.9606 38.7552 43.0832 39.3938C45.1925 38.8971 47.5405 39.8582 48.65 41.7095C49.9852 43.9414 49.7853 47.3086 47.3534 48.7728C46.2697 49.4243 45.0957 49.721 43.6444 49.721C43.4057 49.721 43.2444 49.7339 43.0703 49.7468C42.4123 49.7726 41.7673 49.7726 41.2577 49.6565C41.0726 49.612 40.8931 49.5471 40.7223 49.463C40.7094 49.4888 40.6965 49.5082 40.6836 49.534C40.0966 50.4693 39.3354 51.5078 37.8196 52.0948C37.6906 52.1464 37.568 52.2174 37.4519 52.2883C37.1616 52.4496 36.8649 52.6109 36.5424 52.7141C35.9554 52.914 35.2974 53.0108 34.575 53.0108ZM33.8138 45.5089C33.788 45.5282 33.401 45.7153 33.0075 46.0056C32.4528 46.4119 32.1625 46.9925 32.1754 47.6375C32.2012 48.7212 32.9237 49.8888 34.0654 50.0049C34.6072 50.05 35.1813 50.0242 35.5877 49.8888C35.7296 49.8436 35.8522 49.7597 35.9812 49.6888C36.2263 49.5469 36.4714 49.4179 36.7359 49.3147C37.2906 49.1018 37.6261 48.7793 38.155 47.9343C38.1744 47.8956 38.1937 47.8439 38.2195 47.7859C38.3614 47.4634 38.6001 46.9151 39.1677 46.5409C39.5548 46.2829 39.9676 46.1475 40.4062 46.1475C41.0835 46.1475 41.5802 46.4764 41.8705 46.6635C41.9221 46.6958 41.9737 46.7409 42.0318 46.7603C42.0511 46.7603 42.1866 46.7732 42.3543 46.7732C42.5349 46.7732 42.7284 46.7603 42.9155 46.7474C43.1412 46.7345 43.367 46.7216 43.5734 46.7216C44.5475 46.7216 45.1989 46.5668 45.8117 46.1991C46.6439 45.6959 46.6439 44.1736 46.0891 43.2447C45.5731 42.3804 44.3604 42.0062 43.4186 42.4126L43.367 42.4642C42.9993 42.7223 42.3607 43.1415 41.606 43.0448C41.3696 43.0128 41.1421 42.9335 40.9371 42.8116C40.732 42.6897 40.5537 42.5277 40.4127 42.3352C39.916 41.6579 40.0515 40.8839 40.1289 40.4194L40.1482 40.2582C40.1869 39.884 40.0708 39.7486 40.0128 39.6905C39.6967 39.3422 38.8775 39.1035 37.9744 39.1035C37.697 39.1035 37.4326 39.1293 37.2068 39.168C36.2715 39.3357 35.5748 39.7357 35.3426 40.2324C35.2136 40.5033 35.2523 40.8258 35.3103 41.0516C35.4264 41.5354 35.5361 41.6837 35.5426 41.6902C35.8006 41.845 36.2844 42.1675 36.5488 42.8384C36.923 43.7737 36.6972 44.4252 36.4392 44.8058C36.2328 45.1089 35.749 45.6121 34.7879 45.6121C34.5492 45.6121 34.2654 45.5798 34.0073 45.5347C33.9364 45.5282 33.8719 45.5153 33.8138 45.5089Z" fill="#757F3F"/>
    <path d="M11.5854 45.2122C11.7466 43.664 12.7271 42.0772 14.9009 40.6775C16.4684 39.6712 18.0875 39.31 19.9388 39.568C24.1574 40.1485 28.0728 42.4126 26.8601 47.3924C26.357 49.463 23.7058 51.0886 21.8417 51.753C19.5711 52.5657 17.0425 52.469 14.8687 51.4175C13.8882 50.9466 12.5981 50.0565 12.024 49.1147C11.4241 48.1278 11.4628 46.3345 11.5854 45.2122Z" fill="#ED6C30"/>
    <path d="M23.2286 43.5415L22.2932 45.0316L24.538 45.2186L25.2863 43.5415L24.1639 42.4191L23.2286 43.5415ZM16.6039 45.4057L14.8429 45.5089L15.9911 47.444L17.7972 47.0764L18.0617 45.5153L16.6039 45.4057ZM19.9904 48.6567L18.1972 48.6503L19.5002 50.7983L21.3257 50.5274L21.4869 48.8696L19.9904 48.6567ZM24.9896 45.954L24.7122 46.9345L25.8797 46.9796L25.9249 46.0443L24.9896 45.954ZM20.7064 45.9153C20.7064 45.9153 19.8679 46.7087 20.0033 46.7538C20.1452 46.799 21.3128 46.9409 21.3128 46.9409L21.7772 46.1926L20.7064 45.9153ZM14.83 48.0568C14.83 48.0568 13.7592 49.1792 14.0366 49.1792C14.314 49.1792 15.1138 49.0373 15.1138 49.0373L15.5783 48.2891L14.83 48.0568ZM19.9388 40.9419C19.9388 40.9419 17.9908 42.9738 18.5004 42.9738C19.0099 42.9738 20.4484 42.7223 20.4484 42.7223L21.2934 41.3677L19.9388 40.9419Z" fill="white"/>
    <path d="M27.2598 27.054C27.1631 25.493 27.8726 23.7707 29.7884 22.0291C31.1688 20.7777 32.7105 20.1584 34.5747 20.1068C38.8256 19.9907 43.0636 21.5775 42.6894 26.6928C42.5411 28.8214 40.1866 30.8598 38.4579 31.8209C36.355 32.9885 33.8458 33.3174 31.5236 32.6401C30.4786 32.3305 29.0595 31.6726 28.3435 30.834C27.5888 29.9567 27.3373 28.1764 27.2598 27.054Z" fill="#ED6C30"/>
    <path d="M35.3294 23.861L34.3941 25.3576L36.6389 25.5446L37.3872 23.861L36.2648 22.7387L35.3294 23.861ZM32.2526 26.6993L30.4916 26.8089L31.6398 28.7376L33.4395 28.3764L33.7104 26.8089L32.2526 26.6993ZM38.2064 27.8732L36.4067 27.8668L37.7161 30.0213L39.5352 29.7503L39.7029 28.0926L38.2064 27.8732ZM31.9107 31.0469L32.846 30.4405L33.4524 31.0017L33.1234 31.5113L32.4203 31.6532L31.9107 31.0469ZM39.2901 25.9058L39.0127 26.8863L40.1802 26.9315L40.2254 26.0026L39.2901 25.9058ZM39.8964 22.4484C39.8964 22.4484 39.0578 23.2418 39.1933 23.2869C39.3352 23.3321 40.5027 23.474 40.5027 23.474L40.9672 22.7257L39.8964 22.4484ZM32.7944 22.6354C32.7944 22.6354 31.7172 23.7578 32.001 23.7578C32.2784 23.7578 33.0782 23.6159 33.0782 23.6159L33.5427 22.8677L32.7944 22.6354ZM28.4532 28.1958L28.0339 28.944L28.6854 29.6471C28.6854 29.6471 29.1047 29.1311 29.1047 28.944C29.1047 28.757 28.9177 28.1958 28.9177 28.1958H28.4532Z" fill="white"/>
    <path d="M49.714 38.2327C49.8753 36.6846 50.8558 35.0978 53.0296 33.698C54.597 32.6917 56.2161 32.3305 58.061 32.5885C62.2796 33.1691 66.195 35.4332 64.9888 40.413C64.4857 42.4836 61.8345 44.1091 59.9703 44.7671C57.6997 45.5798 55.1711 45.4831 52.9973 44.4316C52.0168 43.9608 50.7268 43.0706 50.1527 42.1288C49.5528 41.1483 49.5915 39.3551 49.714 38.2327Z" fill="#ED6C30"/>
    <path d="M55.3842 35.6912L55.6551 37.4328L57.4741 36.104L56.9452 34.3431L55.3584 34.2269L55.3842 35.6912ZM54.9133 39.8518L53.649 41.0774L55.7841 41.7934L56.9129 40.3356L56.0873 38.981L54.9133 39.8518ZM60.1833 36.8458L58.8223 38.0198L61.2154 38.7939L62.4152 37.3941L61.4605 36.0331L60.1833 36.8458ZM60.0221 41.5612L60.9574 40.9484L61.5638 41.516L61.2412 42.0256L60.5381 42.1675L60.0221 41.5612ZM55.3003 42.7416C55.3003 42.7416 54.4618 43.535 54.5972 43.5802C54.7391 43.6253 55.9067 43.7672 55.9067 43.7672L56.3711 43.019L55.3003 42.7416ZM52.1654 36.8717L51.7461 37.6199L52.3976 38.323C52.3976 38.323 52.8169 37.807 52.8169 37.6199C52.8169 37.4328 52.6298 36.8717 52.6298 36.8717H52.1654Z" fill="white"/>
    <path d="M35.6778 16.7654C37.5484 16.043 39.161 16.9332 41.0123 17.604C42.3347 18.0878 43.6119 18.6877 44.8826 19.2811C48.7981 21.1195 52.7135 22.9515 56.6225 24.7899C58.5319 25.6865 60.4477 26.5896 62.1377 27.8539C64.1309 29.3439 65.8596 31.0533 67.4335 32.982C68.6978 34.5237 69.9621 37.2651 69.6267 39.239C69.4397 39.8969 68.9236 39.5099 68.814 39.2777C67.1604 35.9722 64.7301 33.1169 61.7313 30.9565C58.0158 28.2925 53.5972 26.8089 49.2173 25.4801C48.1272 25.1446 47.0113 24.8157 46.0501 24.2029C44.9729 23.5191 44.1408 22.5257 43.1732 21.6936C40.8898 19.7198 37.8322 18.6619 34.8134 18.8038C34.1748 18.8619 34.5231 17.2621 35.6778 16.7654Z" fill="#DDA450"/>
    <path d="M81.9471 38.7939C80.8247 36.9362 78.896 35.9815 76.7803 36.4653C74.7935 36.9233 72.4004 39.1358 71.4651 40.9548C70.5297 42.7674 70.0073 45.9281 68.2592 46.9796C66.2402 48.2052 63.6019 47.831 61.4604 48.8244C60.0541 49.4824 58.4286 50.4048 57.0869 51.1918C55.126 52.3464 53.3069 52.8108 51.0621 53.1979C48.8174 53.5849 45.9598 54.3202 44.5859 56.1393C44.0892 56.8037 43.7537 57.5777 43.2377 58.2292C41.2251 60.7965 38.8385 59.242 35.6197 58.7001C34.594 58.526 33.291 58.4163 32.2912 58.7001C31.2333 58.9969 29.1756 60.5321 28.2016 61.0481C25.7633 62.3511 22.9896 61.1513 20.4545 62.2544C17.1067 63.7122 15.3716 67.4599 12.3463 69.5112C10.624 70.6787 8.44372 71.2463 6.41826 70.7755C4.8895 70.4207 3.48974 69.4209 2.70923 68.0727C2.87049 70.253 3.32848 72.5687 4.13479 75.1037C4.85079 77.3743 6.48922 81.0834 9.4371 80.9414C12.385 80.806 12.8494 77.0582 13.3848 74.9231C13.6557 73.8265 13.9782 72.5235 14.8813 71.7366C15.3651 71.3173 15.7715 71.4528 16.3133 71.3044C16.8616 71.156 16.9068 71.0464 17.339 70.7303C18.5452 69.8466 18.8742 70.2723 19.803 71.1818C21.1383 72.4913 23.3508 72.3881 25.0408 72.0527C26.0278 71.8591 26.3503 71.6463 26.9373 70.9109C27.5694 70.1111 28.537 69.5886 29.0982 68.7371C29.6788 67.8598 29.6981 67.5502 30.7689 67.1954C33.0524 66.4407 33.6781 68.0276 35.31 69.1435C36.9098 70.2401 39.0836 70.6658 40.9736 70.2272C41.8895 70.0143 42.154 69.7627 42.6055 69.0145C43.1409 68.1179 43.8376 67.5115 44.4826 66.6987C45.1922 65.7957 45.7598 65.2474 46.7339 64.6346C47.6176 64.0798 48.411 63.8347 49.4108 63.5187C51.2428 62.9381 53.0102 62.1318 54.8292 61.5254C57.1966 60.732 59.5639 59.9386 61.9312 59.1388C66.5885 57.5519 71.2328 55.9329 75.8385 54.2235C78.4703 53.2495 81.4182 52.4754 82.1019 49.405C82.3342 48.3664 82.5083 47.315 82.618 46.2571C82.6954 45.5153 82.7405 44.7735 82.7534 44.0446C82.7599 42.4642 82.805 40.2066 81.9471 38.7939Z" fill="#DDA450"/>
</svg>