<svg width="74" height="74" viewBox="0 0 74 74" fill="none" xmlns="http://www.w3.org/2000/svg">
<path d="M60.5607 16.3807C59.7487 15.9079 58.6819 15.688 57.204 15.688C45.7319 15.688 6.6743 30.2578 5.01752 30.8786C4.65356 31.0148 4.33568 31.2514 4.10075 31.561C1.55186 34.9198 2.05547 47.2778 6.16658 53.4444C11.8296 61.9401 20.1875 64.3471 24.2102 64.7397C24.276 64.7459 24.4322 64.7541 24.498 64.7541C29.5506 64.7541 62.1805 42.6343 64.6307 37.5509C67.4489 31.7069 67.2639 20.2842 60.5607 16.3807Z" fill="#EEEEEE"/>
<path d="M53.4445 20.5556C45.2223 26.7222 26.7223 39.0556 26.7223 39.0556C25.2546 43.4565 22.7695 56.2051 25.1847 64.6555C31.9475 63.1241 62.2711 42.4452 64.6309 37.5509C66.7584 33.1417 67.1695 25.5588 64.3636 20.424C60.7705 18.3027 56.9246 17.945 53.4445 20.5556Z" fill="#CCD6DD"/>
<path d="M65.8147 13.4043C65.5847 13.1888 65.3083 13.0291 65.0067 12.9375C64.7052 12.8459 64.3866 12.8249 64.0757 12.876L3.69167 22.8105C3.20177 22.8913 2.75765 23.1466 2.44139 23.5294C2.12513 23.9121 1.9581 24.3964 1.97117 24.8928C2.02462 26.9689 2.01023 28.4818 1.99173 30.1817C1.98145 31.1273 1.97117 32.1304 1.97117 33.3164C1.97117 33.9269 2.2425 34.5087 2.71323 34.8992C6.89217 38.3669 20.6253 47.5553 23.7477 49.1175C24.0936 49.2877 24.4801 49.3583 24.8639 49.3213C25.2476 49.2842 25.6135 49.1411 25.9204 48.9078C31.1744 44.8646 59.8022 28.4962 64.2833 26.5537C64.6219 26.4068 64.9148 26.1714 65.1311 25.8723C65.3474 25.5732 65.4791 25.2213 65.5125 24.8537C65.7695 22.0335 66.4539 15.1083 66.4539 15.1083C66.4854 14.7943 66.444 14.4772 66.3332 14.1817C66.2223 13.8862 66.0449 13.6202 65.8147 13.4043Z" fill="#A0041E"/>
<path d="M65.9524 13.5441C61.8002 8.82656 46.1636 2.08639 43.5119 1.97128C43.3479 1.96404 43.1837 1.97646 43.0227 2.00828C22.2492 6.14817 8.65583 18.0539 3.5375 22.5371L2.68239 23.2812C2.44787 23.4849 2.26242 23.739 2.13987 24.0244C2.01733 24.3098 1.96087 24.6193 1.9747 24.9296C1.98854 25.2399 2.07232 25.5431 2.21977 25.8165C2.36723 26.0899 2.57456 26.3264 2.82627 26.5084C3.52311 27.0079 19.9203 38.7596 23.9101 41.0166C24.2851 41.2252 24.7155 41.3125 25.1421 41.2665C25.5687 41.2205 25.9706 41.0434 26.2925 40.7596C34.34 33.5672 61.4425 18.2287 65.1404 16.8247C65.451 16.7067 65.7283 16.5152 65.9487 16.2665C66.169 16.0179 66.3258 15.7195 66.4057 15.397C66.4855 15.0745 66.4859 14.7375 66.407 14.4148C66.328 14.0921 66.1721 13.7933 65.9524 13.5441Z" fill="#DD2E44"/>
<path d="M18.8412 35.8016C18.3572 35.8009 17.8889 35.6294 17.5189 35.3173C17.1488 35.0052 16.9008 34.5725 16.8186 34.0955L16.724 33.5467C15.9059 28.8024 14.9788 23.4231 13.2933 18.2842C13.1369 17.77 13.1881 17.2149 13.436 16.7381C13.6839 16.2612 14.1087 15.9003 14.6194 15.7329C15.1302 15.5654 15.6862 15.6046 16.1683 15.8422C16.6504 16.0797 17.0204 16.4966 17.1988 17.0036C18.9789 22.4282 19.9327 27.9638 20.7734 32.8478L20.868 33.3946C20.9193 33.69 20.9053 33.993 20.8271 34.2824C20.7488 34.5719 20.6082 34.8407 20.4151 35.07C20.222 35.2994 19.981 35.4837 19.7092 35.6101C19.4373 35.7365 19.141 35.8018 18.8412 35.8016ZM31.2609 35.2877C30.7338 35.2873 30.227 35.0845 29.8452 34.721C29.4634 34.3576 29.2358 33.8614 29.2094 33.3349C29.0512 30.1694 26.7716 16.946 24.7078 11.3302C24.6145 11.0769 24.5721 10.8077 24.5828 10.5379C24.5936 10.2682 24.6574 10.0032 24.7706 9.7581C24.9992 9.26313 25.4151 8.87924 25.9267 8.69089C26.4384 8.50253 27.0039 8.52514 27.4988 8.75374C27.7439 8.86693 27.9643 9.02728 28.1474 9.22564C28.3305 9.42401 28.4728 9.6565 28.5661 9.90983C30.7532 15.8607 33.1232 29.304 33.3144 33.1273C33.3286 33.4058 33.286 33.6842 33.1892 33.9457C33.0925 34.2072 32.9435 34.4462 32.7514 34.6483C32.5593 34.8504 32.3281 35.0113 32.0719 35.1212C31.8156 35.2312 31.5397 35.2878 31.2609 35.2877ZM42.8234 27.4931C42.3313 27.4926 41.8557 27.3156 41.483 26.9942C41.1103 26.6728 40.8653 26.2284 40.7925 25.7417L40.5602 24.124C39.9579 19.8875 38.8356 12.0024 37.1069 6.81622C37.0173 6.55915 36.9797 6.28685 36.9962 6.01512C37.0127 5.74339 37.083 5.47765 37.2031 5.23332C37.3231 4.98899 37.4905 4.77094 37.6955 4.59183C37.9005 4.41272 38.1391 4.27611 38.3973 4.18994C38.6556 4.10377 38.9283 4.06976 39.1998 4.08987C39.4713 4.10998 39.7361 4.18382 39.9788 4.3071C40.2215 4.43038 40.4373 4.60064 40.6137 4.80801C40.7901 5.01537 40.9235 5.2557 41.0063 5.51506C42.8522 11.0548 44.0094 19.1783 44.6302 23.5443L44.8604 25.1312C44.9046 25.4241 44.8849 25.7231 44.8027 26.0077C44.7206 26.2923 44.5779 26.5557 44.3844 26.78C44.1909 27.0043 43.9513 27.1842 43.6819 27.3072C43.4124 27.4303 43.1196 27.4937 42.8234 27.4931ZM54.4702 20.4692C53.9606 20.4687 53.4694 20.2789 53.0919 19.9367C52.7144 19.5945 52.4774 19.1242 52.4269 18.6172C52.0446 14.7877 51.4547 11.9983 50.394 8.98895C50.2999 8.73338 50.2574 8.46165 50.2692 8.18955C50.281 7.91746 50.3467 7.65041 50.4626 7.40393C50.5784 7.15745 50.7421 6.93646 50.9441 6.75379C51.1462 6.57111 51.3825 6.43041 51.6393 6.33984C51.8962 6.24928 52.1684 6.21065 52.4404 6.22623C52.7123 6.2418 52.9784 6.31125 53.2232 6.43054C53.468 6.54983 53.6867 6.7166 53.8666 6.92113C54.0464 7.12567 54.1838 7.36391 54.2708 7.622C55.4322 10.9191 56.1064 14.0847 56.5175 18.2081C56.5462 18.4941 56.5147 18.783 56.4249 19.056C56.335 19.3291 56.1889 19.5803 55.996 19.7933C55.8031 20.0064 55.5676 20.1767 55.3047 20.2931C55.0419 20.4095 54.7576 20.4695 54.4702 20.4692Z" fill="#EA596E"/>
<path d="M66.0574 47.2778C62.5341 44.7392 57.7221 43.1667 52.4167 43.1667C47.1113 43.1667 42.2992 44.7392 38.776 47.2778H32.8889V57.5556C32.8889 65.4879 41.6497 71.9444 52.4167 71.9444C63.1837 71.9444 71.9445 65.4879 71.9445 57.5556V47.2778H66.0574Z" fill="#292F33"/>
<path d="M52.4167 61.6667C63.2016 61.6667 71.9445 55.2245 71.9445 47.2778C71.9445 39.331 63.2016 32.8889 52.4167 32.8889C41.6318 32.8889 32.8889 39.331 32.8889 47.2778C32.8889 55.2245 41.6318 61.6667 52.4167 61.6667Z" fill="#292F33"/>
<path d="M66.9762 47.2778C66.9762 52.9552 60.458 57.5556 52.4167 57.5556C44.3753 57.5556 37.8572 52.9552 37.8572 47.2778C37.8572 41.6003 44.3753 37 52.4167 37C60.458 37 66.9762 41.6003 66.9762 47.2778Z" fill="#E1E8ED"/>
<path d="M52.4167 59.2678C43.4442 59.2678 36.1428 53.8905 36.1428 47.2778C36.1428 40.6651 43.4442 35.2877 52.4167 35.2877C61.3892 35.2877 68.6884 40.6671 68.6884 47.2778C68.6884 53.8884 61.3892 59.2678 52.4167 59.2678ZM52.4167 38.7123C45.3332 38.7123 39.5694 42.5541 39.5694 47.2778C39.5694 52.0014 45.3332 55.8433 52.4167 55.8433C59.5001 55.8433 65.2639 52.0014 65.2639 47.2778C65.2639 42.5541 59.5001 38.7123 52.4167 38.7123Z" fill="#E1E8ED"/>
<path d="M43.5964 46.3363C43.5964 45.4689 47.3088 45.6477 52.4168 45.6477C57.5249 45.6477 61.0687 44.5254 61.0687 45.3928C61.0687 49.0414 57.5249 52.6942 52.4168 52.6942C47.3088 52.6942 43.5964 49.9849 43.5964 46.3363Z" fill="#77B255"/>
<path d="M52.4168 53.7219C46.7105 53.7219 42.5686 50.616 42.5686 46.3363C42.5686 45.9828 42.7104 45.6457 42.9694 45.3887C43.7464 44.6138 45.4299 44.5809 50.17 44.6117L52.4168 44.6199C54.6655 44.6199 56.6389 44.3938 58.0819 44.2273C60.1231 43.9951 61.048 43.8882 61.6709 44.4411L62.0162 44.7474L62.0964 45.3908C62.0964 49.3971 58.3943 53.7219 52.4168 53.7219ZM44.6529 46.8194C44.9757 49.6561 48.1412 51.6643 52.4168 51.6643C56.6224 51.6643 59.5578 48.9037 59.9874 46.0999C59.5352 46.1267 58.9021 46.2007 58.3183 46.2664C56.8259 46.4391 54.7848 46.6734 52.4188 46.6734L50.1598 46.6652C48.0014 46.6529 45.5985 46.6426 44.6529 46.8194Z" fill="#77B255"/>
<path d="M61.6667 45.2222C61.6667 45.2222 57.5556 43.1667 51.389 45.2222C46.544 46.8379 43.1667 50.4844 43.1667 46.8358C43.1667 43.1872 47.3087 40.2313 52.4167 40.2313C57.5248 40.2313 61.6667 43.1667 61.6667 45.2222Z" fill="#F4900C"/>
<path d="M44.0835 49.4361C43.745 49.4387 43.4122 49.3485 43.1215 49.1751C42.1389 48.5831 42.1389 47.2675 42.1389 46.8358C42.1389 42.6281 46.7495 39.2036 52.4167 39.2036C58.1106 39.2036 62.6945 42.4966 62.6945 45.2222C62.6945 45.5778 62.5095 45.9088 62.2073 46.0979C62.0589 46.1891 61.8897 46.2411 61.7157 46.2491C61.5417 46.257 61.3685 46.2205 61.2124 46.1431C61.1446 46.1082 57.3336 44.3219 51.7158 46.1966C50.1597 46.7146 48.766 47.4504 47.5389 48.1021C46.137 48.8441 45.0208 49.4361 44.0835 49.4361ZM52.4167 41.2591C47.8821 41.2591 44.1945 43.7607 44.1945 46.8358C44.1945 47.0969 44.215 47.2634 44.2376 47.3641C44.7145 47.2716 45.7773 46.7104 46.5769 46.287C47.8123 45.6354 49.3498 44.8193 51.0662 44.2479C54.5524 43.0865 57.4322 43.1605 59.3768 43.4956C57.9872 42.3794 55.5329 41.2591 52.4167 41.2591Z" fill="#F4900C"/>
</svg>
