<svg width="76" height="76" viewBox="0 0 76 76" fill="none" xmlns="http://www.w3.org/2000/svg">
<path d="M58.0972 64.4314C63.764 61.2774 66.0939 54.4635 63.8352 48.5806C63.7083 48.2338 63.7193 47.8514 63.866 47.5125C64.0128 47.1735 64.284 46.9038 64.6237 46.759C65.2919 46.4835 65.9347 46.1352 66.5522 45.714C68.6817 44.2521 70.2215 42.0801 70.8959 39.5867C71.5704 37.0933 71.3356 34.4413 70.2335 32.1052C69.5003 30.5532 68.4098 29.1969 67.0514 28.1476C65.693 27.0982 64.1053 26.3856 62.4184 26.0682C60.7315 25.7507 58.9934 25.8374 57.3465 26.3212C55.6996 26.805 54.1907 27.6721 52.9435 28.8515C51.2346 25.971 48.4679 23.8721 45.2334 23.0025C41.999 22.1328 38.5528 22.5613 35.6297 24.1965C31.7822 26.334 29.4785 30.1815 29.0985 34.2427C26.9372 34.0052 24.6572 34.409 22.6147 35.549C21.0913 36.3962 19.7949 37.5986 18.8356 39.054C17.8764 40.5095 17.2826 42.175 17.1047 43.909C16.6297 48.3028 14.1597 52.2453 10.2885 54.4065C9.2557 54.9831 8.34666 55.7575 7.61336 56.6856C6.88006 57.6137 6.33686 58.6772 6.01483 59.8153C5.6928 60.9535 5.59824 62.1439 5.73657 63.3186C5.87489 64.4934 6.24339 65.6293 6.82099 66.6615C7.39754 67.6943 8.172 68.6033 9.10009 69.3366C10.0282 70.0699 11.0917 70.6131 12.2298 70.9352C13.368 71.2572 14.5584 71.3517 15.7331 71.2134C16.9078 71.0751 18.0438 70.7066 19.076 70.129C22.9235 67.9677 27.5785 67.944 31.5685 69.844C34.656 71.3165 38.3847 71.3402 41.591 69.5352C43.2535 68.609 44.5859 67.3027 45.524 65.7732C45.6959 65.494 45.9596 65.2833 46.2698 65.1771C46.5801 65.071 46.9176 65.076 47.2245 65.1914C50.654 66.5261 54.6345 66.3551 58.0972 64.4314Z" fill="url(#paint0_linear_1252_103)"/>
<g filter="url(#filter0_f_1252_103)">
<path d="M56.544 62.7926C61.8973 59.812 64.0989 53.3734 61.9638 47.8159C61.7073 47.1461 61.864 46.0512 62.5243 45.7757C63.1649 45.5115 63.7762 45.1811 64.3483 44.7901C68.4998 41.9639 70.167 36.7792 68.0129 32.2454C67.3197 30.7789 66.2889 29.4974 65.0051 28.506C63.7212 27.5146 62.2208 26.8414 60.6267 26.5416C59.0325 26.2418 57.39 26.3239 55.8337 26.7811C54.2774 27.2383 52.8515 28.0577 51.6729 29.1721C50.0577 26.4497 47.4427 24.4661 44.3857 23.6444C41.3287 22.8226 38.0716 23.2279 35.3092 24.7736C33.5866 25.7353 32.1244 27.1023 31.0492 28.7564C29.9741 30.4106 29.3184 32.3018 29.1389 34.2665C27.0177 34.0324 24.8763 34.464 23.0114 35.5015C21.5722 36.3022 20.3474 37.4384 19.4411 38.8136C18.5348 40.1888 17.9737 41.7624 17.8054 43.4007C17.3542 47.5522 15.0219 51.2786 11.3644 53.3211C10.3888 53.8663 9.53016 54.5983 8.83746 55.4753C8.14477 56.3524 7.6316 57.3572 7.32725 58.4326C7.02291 59.5079 6.93335 60.6327 7.06369 61.7427C7.19403 62.8526 7.54172 63.926 8.0869 64.9016C8.63209 65.8772 9.36409 66.7359 10.2411 67.4286C11.1181 68.1213 12.123 68.6344 13.1984 68.9388C14.2737 69.2431 15.3985 69.3327 16.5084 69.2023C17.6184 69.072 18.6918 68.7243 19.6674 68.1791C23.3012 66.1366 27.702 66.1129 31.4712 67.9084C32.9572 68.6254 34.5943 68.9735 36.2436 68.9231C37.8928 68.8726 39.5056 68.4252 40.945 67.6186C42.4681 66.7723 43.7474 65.5478 44.6595 64.0633C44.8212 63.7977 45.0708 63.5971 45.365 63.4965C45.6592 63.3958 45.9793 63.4014 46.2698 63.5122C47.93 64.1547 49.7114 64.4232 51.4872 64.2989C53.263 64.1745 54.9896 63.6602 56.544 62.7926Z" fill="url(#paint1_linear_1252_103)"/>
</g>
<g filter="url(#filter1_f_1252_103)">
<path d="M58.1685 28.0131C61.3581 26.9444 66.1912 29.1056 68.2266 32.7797C69.7418 35.5134 69.8962 40.0757 65.4146 44.2605" stroke="url(#paint2_linear_1252_103)" stroke-width="0.75"/>
</g>
<path d="M11.5948 17.9289C14.7488 12.2621 21.565 9.93225 27.4455 12.1909C27.7924 12.3178 28.1747 12.3068 28.5137 12.1601C28.8526 12.0134 29.1223 11.7421 29.2672 11.4024C29.5427 10.7342 29.891 10.0914 30.3122 9.47388C31.7741 7.34441 33.9461 5.80466 36.4394 5.13019C38.9328 4.45572 41.5848 4.69054 43.9209 5.79262C45.473 6.52581 46.8292 7.61628 47.8786 8.97468C48.9279 10.3331 49.6405 11.9208 49.958 13.6077C50.2754 15.2946 50.1887 17.0327 49.7049 18.6796C49.2211 20.3265 48.354 21.8354 47.1747 23.0826C50.0552 24.7915 52.1541 27.5583 53.0237 30.7927C53.8933 34.0271 53.4648 37.4734 51.8297 40.3964C50.8134 42.2207 49.367 43.7692 47.6162 44.9074C45.8654 46.0457 43.8632 46.7391 41.7834 46.9276C42.0209 49.0889 41.6172 51.3689 40.4772 53.4114C39.63 54.9348 38.4276 56.2312 36.9721 57.1905C35.5167 58.1498 33.8512 58.7435 32.1172 58.9214C27.7234 59.3964 23.7809 61.8664 21.6197 65.7376C21.0431 66.7704 20.2686 67.6794 19.3406 68.4127C18.4125 69.146 17.349 69.6892 16.2108 70.0113C15.0727 70.3333 13.8822 70.4279 12.7075 70.2895C11.5328 70.1512 10.3969 69.7827 9.36466 69.2051C8.33187 68.6286 7.42284 67.8541 6.68953 66.926C5.95623 65.9979 5.41304 64.9344 5.091 63.7963C4.76897 62.6581 4.67441 61.4677 4.81274 60.293C4.95107 59.1183 5.31956 57.9823 5.89716 56.9501C8.05841 53.1026 8.08216 48.4476 6.18216 44.4576C5.42388 42.8853 5.05601 41.1533 5.10976 39.4086C5.16351 37.6638 5.63729 35.9578 6.49091 34.4351C7.41241 32.7797 8.53103 31.4426 9.98216 30.5045C10.2592 30.3259 10.4676 30.0586 10.5733 29.7463C10.6789 29.4341 10.6757 29.0952 10.564 28.785C9.27678 25.3603 9.67341 21.3892 11.5948 17.9289Z" fill="#457420"/>
<g filter="url(#filter2_f_1252_103)">
<path d="M12.9724 18.6675C15.9317 13.3 22.6078 12.0341 28.1249 14.174C29.6734 14.7725 30.0534 12.9984 30.8918 11.837C34.4068 6.95638 38.9383 5.48387 43.4389 7.64512C48.8325 10.2315 50.9867 17.2686 48.1343 22.4414C47.73 23.1874 47.2276 23.876 46.6404 24.4886C52.2359 27.8398 54.2167 35.1049 51.0104 40.888C50.0632 42.6106 48.7087 44.075 47.0651 45.1535C45.4215 46.2319 43.5389 46.8916 41.5817 47.0749C41.8153 49.1995 41.3873 51.3444 40.3562 53.2166C39.5665 54.6552 38.4403 55.8812 37.0738 56.7898C35.7073 57.6985 34.1412 58.2628 32.5092 58.4345C28.3862 58.8857 24.6859 61.2251 22.6577 64.8921C22.1231 65.8677 21.4002 66.7274 20.5309 67.4215C19.6617 68.1157 18.6633 68.6304 17.5937 68.9359C16.5241 69.2414 15.4045 69.3316 14.2997 69.2013C13.195 69.071 12.1271 68.7228 11.1579 68.1767C7.07765 65.8825 5.6289 60.686 7.90415 56.5678C9.9324 52.9245 9.95378 48.5165 8.17015 44.7355C7.45763 43.2448 7.11214 41.6053 7.16254 39.9539C7.21295 38.3025 7.65779 36.6871 8.4599 35.2426C9.32678 33.6751 10.6592 32.7299 12.0224 31.8393C12.552 31.4949 13.5804 30.134 13.3595 29.5379C12.1483 26.2936 11.1698 21.9474 12.9724 18.6675Z" fill="url(#paint3_linear_1252_103)"/>
</g>
<g filter="url(#filter3_f_1252_103)">
<path d="M56.4252 53.9458C60.8142 49.5187 61.1467 42.5529 58.0402 37.335C57.6468 36.6995 57.5149 35.9364 57.6721 35.2057C57.8293 34.4751 58.2634 33.8337 58.8833 33.4162C59.1826 33.2072 59.4533 32.9745 59.6718 32.7061C61.3058 25.5312 50.3215 15.2879 43.377 17.0976L43.2226 17.2639C42.1681 18.4514 40.4201 18.7957 39.0663 17.9764C33.8817 14.8366 26.9396 15.1216 22.5553 19.5439C19.9998 22.1231 18.6793 25.7521 18.6318 29.2362C18.6128 30.6921 17.5987 32.0577 16.2972 32.6895C14.7226 33.4542 13.3403 34.6631 12.2003 35.8126C9.49283 38.5201 8.92995 41.8617 9.54508 45.3649C16.4563 85.2316 3.37721 61.845 31.8297 66.8349C34.5158 67.3075 38.3063 66.5926 40.9901 63.8851C42.1063 62.7617 43.1561 61.4579 43.8686 60.0661C44.4956 58.8382 45.7876 57.9405 47.1532 57.9286C50.5162 57.9001 53.8317 56.5606 56.4252 53.9458Z" fill="url(#paint4_linear_1252_103)"/>
</g>
<g filter="url(#filter4_f_1252_103)">
<path d="M48.4644 15.7344C48.8729 12.3951 45.7925 8.08925 41.7859 6.82812C38.8029 5.89 34.3046 6.65 31.0984 11.875" stroke="url(#paint5_linear_1252_103)" stroke-width="0.75"/>
</g>
<g filter="url(#filter5_f_1252_103)">
<path d="M6.75447 43.3057C5.21072 38.8526 6.19634 37.1474 6.97772 35.7722C6.66897 38.2969 6.48609 39.2469 7.27459 42.4911C7.81609 44.7307 9.31472 48.0177 9.31472 51.5826C9.31472 54.8126 6.27234 58.4844 6.27234 58.4844C6.27234 58.4844 7.64509 56.0714 8.49772 51.5826C8.45972 49.0057 7.47172 45.3767 6.75447 43.3057Z" fill="#688555"/>
</g>
<path d="M56.6294 52.1764C60.8593 47.9441 61.1823 41.287 58.1874 36.2995C57.8102 35.6919 57.684 34.9614 57.8356 34.2624C57.9872 33.5635 58.4046 32.9509 58.9997 32.5541C59.2871 32.3546 59.5483 32.1314 59.7597 31.8772C63.1559 27.816 62.8282 21.8405 59.3369 17.8505C55.1569 13.0767 48.4666 12.5424 44.0491 16.9599L43.8994 17.1166C42.8853 18.2519 41.1991 18.5796 39.8928 17.7959C34.8934 14.7963 28.1983 15.0694 23.9732 19.2969C21.5079 21.7597 20.2373 25.2296 20.1898 28.5594C20.1732 29.9511 19.1923 31.2574 17.9383 31.8606C16.4231 32.5921 15.0883 33.7464 13.9911 34.846C11.3786 37.4347 10.8347 40.6268 11.4284 43.9755C12.1884 48.3218 11.0888 52.6395 7.97756 55.7745C4.46256 59.2895 4.08731 64.3791 8.22218 68.5164C11.7372 72.0314 17.2282 71.6846 20.7432 68.1696C23.8782 65.0346 28.5451 63.7355 32.9151 64.4955C35.5062 64.9468 39.1613 64.2651 41.7501 61.6764C42.8212 60.6029 43.8353 59.356 44.5217 58.0236C45.1273 56.8528 46.3742 55.993 47.6899 55.9811C50.9318 55.9574 54.1309 54.6749 56.6294 52.1764Z" fill="url(#paint6_linear_1252_103)"/>
<g filter="url(#filter6_f_1252_103)">
<path d="M55.0573 51.5114C58.9998 47.5689 59.2706 41.0139 56.4823 36.3684C55.3233 34.4399 56.5251 33.3711 57.5819 32.1005C60.7454 28.3171 60.8357 23.2512 57.5819 19.5367C53.9126 15.3449 48.1342 14.6704 44.1964 19.0736C43.2512 20.1329 40.6838 20.2136 39.4678 19.4845C34.8128 16.6915 28.9869 16.6962 25.0492 20.634C22.7526 22.9282 21.5294 26.6974 21.4867 29.7991C21.4677 31.0959 20.5557 32.3119 19.3896 32.8747C17.9764 33.5564 16.3614 34.3425 15.3378 35.3685C12.9058 37.7791 12.5828 40.8191 13.1362 43.9375C13.8439 47.9869 13.8083 52.3735 10.9108 55.2924C7.79244 58.9665 6.61206 63.0182 10.4643 66.8705C13.7394 70.1456 17.7389 68.5401 21.4843 65.4621C24.4056 62.5409 28.8991 62.2796 32.9698 62.9874C35.3828 63.4077 38.7838 62.7736 41.1968 60.3606C42.1943 59.3608 42.9448 57.8787 43.5837 56.639C44.1466 55.5465 45.3079 54.7461 46.5358 54.7366C49.5544 54.7129 52.7298 53.8389 55.0573 51.5114Z" fill="url(#paint7_linear_1252_103)"/>
</g>
<path fill-rule="evenodd" clip-rule="evenodd" d="M32.8392 26.9848C33.623 26.7401 34.4542 27.1795 34.6965 27.9609L37.5299 37.0856L47.2626 27.3529C47.3988 27.2083 47.5626 27.0925 47.7443 27.0123C47.926 26.9322 48.122 26.8893 48.3206 26.8863C48.5191 26.8833 48.7163 26.9201 48.9004 26.9947C49.0845 27.0692 49.2518 27.1799 49.3923 27.3203C49.5328 27.4607 49.6437 27.6278 49.7185 27.8118C49.7932 27.9958 49.8303 28.1929 49.8275 28.3915C49.8247 28.5901 49.782 28.7861 49.7021 28.9679C49.6222 29.1498 49.5065 29.3137 49.3621 29.45L39.6317 39.1827L48.7755 42.0185C49.1515 42.135 49.4659 42.3962 49.6494 42.7445C49.8329 43.0928 49.8705 43.4997 49.754 43.8757C49.6375 44.2518 49.3763 44.5661 49.028 44.7496C48.6797 44.9332 48.2728 44.9708 47.8967 44.8542L37.2567 41.5554L28.0892 50.7252L34.383 52.6822C34.7448 52.81 35.0431 53.073 35.2152 53.4159C35.3874 53.7588 35.42 54.1551 35.3064 54.5216C35.1927 54.8881 34.9415 55.1963 34.6056 55.3816C34.2696 55.567 33.8749 55.615 33.5042 55.5156L25.7142 53.0979L20.5534 58.2611C20.4155 58.399 20.2519 58.5083 20.0717 58.5829C19.8916 58.6575 19.6986 58.6959 19.5036 58.6959C19.3087 58.6959 19.1156 58.6575 18.9355 58.5829C18.7554 58.5083 18.5917 58.399 18.4539 58.2611C18.316 58.1233 18.2067 57.9596 18.132 57.7795C18.0574 57.5994 18.019 57.4063 18.019 57.2114C18.019 57.0164 18.0574 56.8234 18.132 56.6433C18.2067 56.4631 18.316 56.2995 18.4539 56.1616L23.6147 51.0008L21.197 43.2107C21.0805 42.8347 21.1181 42.4278 21.3016 42.0795C21.4851 41.7312 21.7994 41.47 22.1755 41.3535C22.5515 41.237 22.9585 41.2746 23.3068 41.4581C23.6551 41.6416 23.9162 41.956 24.0327 42.332L25.9874 48.6258L35.1572 39.4582L31.8607 28.842C31.803 28.6558 31.7826 28.4601 31.8005 28.266C31.8185 28.0718 31.8745 27.8832 31.9653 27.7107C32.0562 27.5383 32.1801 27.3854 32.3301 27.2608C32.48 27.1363 32.653 27.0424 32.8392 26.9848Z" fill="url(#paint8_linear_1252_103)"/>
<path fill-rule="evenodd" clip-rule="evenodd" d="M32.8392 26.9848C33.623 26.7401 34.4542 27.1795 34.6965 27.9609L37.5299 37.0856L47.2626 27.3529C47.3988 27.2083 47.5626 27.0925 47.7443 27.0123C47.926 26.9322 48.122 26.8893 48.3206 26.8863C48.5191 26.8833 48.7163 26.9201 48.9004 26.9947C49.0845 27.0692 49.2518 27.1799 49.3923 27.3203C49.5328 27.4607 49.6437 27.6278 49.7185 27.8118C49.7932 27.9958 49.8303 28.1929 49.8275 28.3915C49.8247 28.5901 49.782 28.7861 49.7021 28.9679C49.6222 29.1498 49.5065 29.3137 49.3621 29.45L39.6317 39.1827L48.7755 42.0185C49.1515 42.135 49.4659 42.3962 49.6494 42.7445C49.8329 43.0928 49.8705 43.4997 49.754 43.8757C49.6375 44.2518 49.3763 44.5661 49.028 44.7496C48.6797 44.9332 48.2728 44.9708 47.8967 44.8542L37.2567 41.5554L28.0892 50.7252L34.383 52.6822C34.7448 52.81 35.0431 53.073 35.2152 53.4159C35.3874 53.7588 35.42 54.1551 35.3064 54.5216C35.1927 54.8881 34.9415 55.1963 34.6056 55.3816C34.2696 55.567 33.8749 55.615 33.5042 55.5156L25.7142 53.0979L20.5534 58.2611C20.4155 58.399 20.2519 58.5083 20.0717 58.5829C19.8916 58.6575 19.6986 58.6959 19.5036 58.6959C19.3087 58.6959 19.1156 58.6575 18.9355 58.5829C18.7554 58.5083 18.5917 58.399 18.4539 58.2611C18.316 58.1233 18.2067 57.9596 18.132 57.7795C18.0574 57.5994 18.019 57.4063 18.019 57.2114C18.019 57.0164 18.0574 56.8234 18.132 56.6433C18.2067 56.4631 18.316 56.2995 18.4539 56.1616L23.6147 51.0008L21.197 43.2107C21.0805 42.8347 21.1181 42.4278 21.3016 42.0795C21.4851 41.7312 21.7994 41.47 22.1755 41.3535C22.5515 41.237 22.9585 41.2746 23.3068 41.4581C23.6551 41.6416 23.9162 41.956 24.0327 42.332L25.9874 48.6258L35.1572 39.4582L31.8607 28.842C31.803 28.6558 31.7826 28.4601 31.8005 28.266C31.8185 28.0718 31.8745 27.8832 31.9653 27.7107C32.0562 27.5383 32.1801 27.3854 32.3301 27.2608C32.48 27.1363 32.653 27.0424 32.8392 26.9848Z" fill="url(#paint9_radial_1252_103)"/>
<g filter="url(#filter7_f_1252_103)">
<path d="M48.0201 28.6853L39.3347 37.4063" stroke="url(#paint10_linear_1252_103)" stroke-linecap="round"/>
</g>
<g filter="url(#filter8_f_1252_103)">
<path d="M48.4144 43.3889L36.6748 39.7005" stroke="url(#paint11_linear_1252_103)" stroke-linecap="round"/>
</g>
<g filter="url(#filter9_f_1252_103)">
<path d="M22.2014 42.807L24.8994 51.566" stroke="url(#paint12_linear_1252_103)" stroke-width="0.75" stroke-linecap="round"/>
</g>
<g filter="url(#filter10_f_1252_103)">
<path d="M34.0743 54.2046L25.301 51.5518" stroke="url(#paint13_linear_1252_103)" stroke-width="0.75" stroke-linecap="round"/>
</g>
<g filter="url(#filter11_f_1252_103)">
<path d="M19.4084 57.2612L37.7031 39.1875" stroke="url(#paint14_linear_1252_103)" stroke-linecap="round"/>
</g>
<g filter="url(#filter12_f_1252_103)">
<path d="M49.3572 15.3662C55.8884 13.8819 61.5291 18.0405 60.5268 25.2011C59.2372 18.544 56.1924 15.9838 49.3572 15.3686" fill="#BFEE84"/>
</g>
<g filter="url(#filter13_f_1252_103)">
<path d="M57.7055 48.317C57.7055 48.317 59.4488 39.4108 56.1095 34.5848C55.0716 34.067 53.9008 34.5658 54.5515 35.2901C58.2993 39.4844 57.7055 48.317 57.7055 48.317Z" fill="url(#paint15_linear_1252_103)"/>
</g>
<g filter="url(#filter14_f_1252_103)">
<path d="M57.7055 48.317C57.7055 48.317 59.4488 39.4108 56.1095 34.5848C55.0716 34.067 53.9008 34.5658 54.5515 35.2901C58.2993 39.4844 57.7055 48.317 57.7055 48.317Z" fill="url(#paint16_linear_1252_103)"/>
</g>
<g filter="url(#filter15_f_1252_103)">
<path d="M28.519 17.3945C28.519 17.3945 37.5369 16.3614 42.0803 20.0711C42.5173 21.1494 41.9283 22.2751 41.2538 21.5697C37.3707 17.5014 28.519 17.3945 28.519 17.3945Z" fill="url(#paint17_linear_1252_103)"/>
</g>
<g filter="url(#filter16_f_1252_103)">
<path d="M28.519 17.3945C28.519 17.3945 37.5369 16.3614 42.0803 20.0711C42.5173 21.1494 41.9283 22.2751 41.2538 21.5697C37.3707 17.5014 28.519 17.3945 28.519 17.3945Z" fill="url(#paint18_linear_1252_103)"/>
</g>
<g filter="url(#filter17_f_1252_103)">
<path d="M26.5216 18.905C26.5216 18.905 20.7361 25.5787 20.9974 31.3334C21.5769 32.2786 22.5577 32.5304 22.3582 31.6041C21.09 25.7498 26.5216 18.905 26.5216 18.905Z" fill="url(#paint19_linear_1252_103)"/>
</g>
<g filter="url(#filter18_f_1252_103)">
<path d="M56.9263 49.4309C56.9263 49.4309 52.8081 56.0476 46.5143 55.2568C45.5406 54.625 45.0893 53.3805 46.0536 53.2523C51.9151 52.4733 56.9263 49.4309 56.9263 49.4309Z" fill="url(#paint20_linear_1252_103)"/>
</g>
<g filter="url(#filter19_f_1252_103)">
<path d="M13.73 38.1496C12.8394 40.5246 13.3073 43.5955 13.73 46.6094C14.3238 50.8392 11.5545 53.8579 10.3908 55.5156C8.58578 57.5439 5.6479 63.1227 8.79478 66.9821C11.9417 70.8415 16.675 68.9747 17.8863 68.134" stroke="url(#paint21_linear_1252_103)" stroke-width="0.5"/>
</g>
<g filter="url(#filter20_f_1252_103)">
<path d="M19.3326 56.0168C18.9526 56.3493 18.081 57.1591 18.8695 57.9096C19.6128 58.615 20.2066 57.9096 20.7457 57.3895" stroke="url(#paint22_radial_1252_103)" stroke-width="0.1"/>
</g>
<g filter="url(#filter21_f_1252_103)">
<path d="M25.2533 49.2076L23.2274 42.4887C23.1577 42.296 23.0173 42.1371 22.8348 42.044C22.6522 41.951 22.4411 41.9308 22.2442 41.9876C21.4652 42.1729 21.5958 42.8782 21.6694 43.1751C21.7288 43.4126 23.2654 48.3027 24.0444 50.7989" stroke="url(#paint23_linear_1252_103)" stroke-width="0.1"/>
</g>
<g filter="url(#filter22_f_1252_103)">
<path d="M37.0738 37.6105L34.0766 28.1319C34.0069 27.9392 33.8665 27.7802 33.6839 27.6871C33.5013 27.5941 33.2902 27.5739 33.0933 27.6307C32.3143 27.816 32.4426 28.5214 32.5162 28.8182C32.5756 29.0557 34.8651 36.651 35.6441 39.1495" stroke="url(#paint24_linear_1252_103)" stroke-width="0.1"/>
</g>
<g filter="url(#filter23_f_1252_103)">
<path d="M39.1163 39.4962L48.5593 42.6051C48.7505 42.6776 48.907 42.8199 48.9974 43.0032C49.0877 43.1866 49.1052 43.3974 49.0462 43.5931C48.8538 44.3721 48.1485 44.2344 47.854 44.156C47.6165 44.0942 40.0473 41.7145 37.5583 40.907" stroke="url(#paint25_linear_1252_103)" stroke-width="0.1"/>
</g>
<g filter="url(#filter24_f_1252_103)">
<path d="M27.4716 51.4045L34.181 53.4517C34.3738 53.5219 34.5326 53.6629 34.6252 53.8459C34.7179 54.029 34.7374 54.2405 34.6797 54.4374C34.4897 55.214 33.7844 55.0834 33.4875 55.0074C33.25 54.948 28.367 53.3924 25.8708 52.6039" stroke="url(#paint26_linear_1252_103)" stroke-width="0.1"/>
</g>
<g filter="url(#filter25_f_1252_103)">
<path d="M29.1674 14.7701L28.6472 12.9889C19 10.3906 16.0312 14.7701 16.0312 14.7701C22.4152 12.9889 26.2746 14.1027 29.1674 14.7701Z" fill="url(#paint27_linear_1252_103)"/>
</g>
<g filter="url(#filter26_f_1252_103)">
<path d="M60.7051 47.405L62.4982 47.8895C65.2865 57.4845 60.9687 60.5411 60.9687 60.5411C62.6217 54.1239 61.4318 50.2882 60.7075 47.4074" fill="url(#paint28_linear_1252_103)"/>
</g>
<g filter="url(#filter27_f_1252_103)">
<path d="M12.9082 29.906H11.4357C9.09153 21.9735 12.692 18.4823 12.692 18.4823C10.4762 21.8975 12.027 27.759 12.9082 29.906Z" fill="url(#paint29_linear_1252_103)"/>
</g>
<defs>
<filter id="filter0_f_1252_103" x="6.50562" y="22.7283" width="62.9504" height="47.0321" filterUnits="userSpaceOnUse" color-interpolation-filters="sRGB">
<feFlood flood-opacity="0" result="BackgroundImageFix"/>
<feBlend mode="normal" in="SourceGraphic" in2="BackgroundImageFix" result="shape"/>
<feGaussianBlur stdDeviation="0.25" result="effect1_foregroundBlur_1252_103"/>
</filter>
<filter id="filter1_f_1252_103" x="57.0493" y="26.3645" width="13.5105" height="19.1701" filterUnits="userSpaceOnUse" color-interpolation-filters="sRGB">
<feFlood flood-opacity="0" result="BackgroundImageFix"/>
<feBlend mode="normal" in="SourceGraphic" in2="BackgroundImageFix" result="shape"/>
<feGaussianBlur stdDeviation="0.5" result="effect1_foregroundBlur_1252_103"/>
</filter>
<filter id="filter2_f_1252_103" x="6.32812" y="6.17502" width="46.7188" height="63.5842" filterUnits="userSpaceOnUse" color-interpolation-filters="sRGB">
<feFlood flood-opacity="0" result="BackgroundImageFix"/>
<feBlend mode="normal" in="SourceGraphic" in2="BackgroundImageFix" result="shape"/>
<feGaussianBlur stdDeviation="0.25" result="effect1_foregroundBlur_1252_103"/>
</filter>
<filter id="filter3_f_1252_103" x="8.31909" y="14.8817" width="52.772" height="55.3067" filterUnits="userSpaceOnUse" color-interpolation-filters="sRGB">
<feFlood flood-opacity="0" result="BackgroundImageFix"/>
<feBlend mode="normal" in="SourceGraphic" in2="BackgroundImageFix" result="shape"/>
<feGaussianBlur stdDeviation="0.5" result="effect1_foregroundBlur_1252_103"/>
</filter>
<filter id="filter4_f_1252_103" x="29.7788" y="5.10884" width="20.0969" height="11.6711" filterUnits="userSpaceOnUse" color-interpolation-filters="sRGB">
<feFlood flood-opacity="0" result="BackgroundImageFix"/>
<feBlend mode="normal" in="SourceGraphic" in2="BackgroundImageFix" result="shape"/>
<feGaussianBlur stdDeviation="0.5" result="effect1_foregroundBlur_1252_103"/>
</filter>
<filter id="filter5_f_1252_103" x="5.44019" y="35.2722" width="4.37451" height="23.7121" filterUnits="userSpaceOnUse" color-interpolation-filters="sRGB">
<feFlood flood-opacity="0" result="BackgroundImageFix"/>
<feBlend mode="normal" in="SourceGraphic" in2="BackgroundImageFix" result="shape"/>
<feGaussianBlur stdDeviation="0.25" result="effect1_foregroundBlur_1252_103"/>
</filter>
<filter id="filter6_f_1252_103" x="7.78857" y="15.818" width="52.45" height="53.1096" filterUnits="userSpaceOnUse" color-interpolation-filters="sRGB">
<feFlood flood-opacity="0" result="BackgroundImageFix"/>
<feBlend mode="normal" in="SourceGraphic" in2="BackgroundImageFix" result="shape"/>
<feGaussianBlur stdDeviation="0.125" result="effect1_foregroundBlur_1252_103"/>
</filter>
<filter id="filter7_f_1252_103" x="38.5847" y="27.9353" width="10.1853" height="10.221" filterUnits="userSpaceOnUse" color-interpolation-filters="sRGB">
<feFlood flood-opacity="0" result="BackgroundImageFix"/>
<feBlend mode="normal" in="SourceGraphic" in2="BackgroundImageFix" result="shape"/>
<feGaussianBlur stdDeviation="0.125" result="effect1_foregroundBlur_1252_103"/>
</filter>
<filter id="filter8_f_1252_103" x="35.9246" y="38.9504" width="13.24" height="5.18864" filterUnits="userSpaceOnUse" color-interpolation-filters="sRGB">
<feFlood flood-opacity="0" result="BackgroundImageFix"/>
<feBlend mode="normal" in="SourceGraphic" in2="BackgroundImageFix" result="shape"/>
<feGaussianBlur stdDeviation="0.125" result="effect1_foregroundBlur_1252_103"/>
</filter>
<filter id="filter9_f_1252_103" x="21.5764" y="42.1819" width="3.948" height="10.0092" filterUnits="userSpaceOnUse" color-interpolation-filters="sRGB">
<feFlood flood-opacity="0" result="BackgroundImageFix"/>
<feBlend mode="normal" in="SourceGraphic" in2="BackgroundImageFix" result="shape"/>
<feGaussianBlur stdDeviation="0.125" result="effect1_foregroundBlur_1252_103"/>
</filter>
<filter id="filter10_f_1252_103" x="24.676" y="50.9267" width="10.0234" height="3.90308" filterUnits="userSpaceOnUse" color-interpolation-filters="sRGB">
<feFlood flood-opacity="0" result="BackgroundImageFix"/>
<feBlend mode="normal" in="SourceGraphic" in2="BackgroundImageFix" result="shape"/>
<feGaussianBlur stdDeviation="0.125" result="effect1_foregroundBlur_1252_103"/>
</filter>
<filter id="filter11_f_1252_103" x="18.6584" y="38.4375" width="19.7947" height="19.5738" filterUnits="userSpaceOnUse" color-interpolation-filters="sRGB">
<feFlood flood-opacity="0" result="BackgroundImageFix"/>
<feBlend mode="normal" in="SourceGraphic" in2="BackgroundImageFix" result="shape"/>
<feGaussianBlur stdDeviation="0.125" result="effect1_foregroundBlur_1252_103"/>
</filter>
<filter id="filter12_f_1252_103" x="48.8572" y="14.5671" width="12.2856" height="11.134" filterUnits="userSpaceOnUse" color-interpolation-filters="sRGB">
<feFlood flood-opacity="0" result="BackgroundImageFix"/>
<feBlend mode="normal" in="SourceGraphic" in2="BackgroundImageFix" result="shape"/>
<feGaussianBlur stdDeviation="0.25" result="effect1_foregroundBlur_1252_103"/>
</filter>
<filter id="filter13_f_1252_103" x="53.864" y="33.8715" width="4.79639" height="14.9455" filterUnits="userSpaceOnUse" color-interpolation-filters="sRGB">
<feFlood flood-opacity="0" result="BackgroundImageFix"/>
<feBlend mode="normal" in="SourceGraphic" in2="BackgroundImageFix" result="shape"/>
<feGaussianBlur stdDeviation="0.25" result="effect1_foregroundBlur_1252_103"/>
</filter>
<filter id="filter14_f_1252_103" x="53.864" y="33.8715" width="4.79639" height="14.9455" filterUnits="userSpaceOnUse" color-interpolation-filters="sRGB">
<feFlood flood-opacity="0" result="BackgroundImageFix"/>
<feBlend mode="normal" in="SourceGraphic" in2="BackgroundImageFix" result="shape"/>
<feGaussianBlur stdDeviation="0.25" result="effect1_foregroundBlur_1252_103"/>
</filter>
<filter id="filter15_f_1252_103" x="28.019" y="16.7623" width="14.7117" height="5.52718" filterUnits="userSpaceOnUse" color-interpolation-filters="sRGB">
<feFlood flood-opacity="0" result="BackgroundImageFix"/>
<feBlend mode="normal" in="SourceGraphic" in2="BackgroundImageFix" result="shape"/>
<feGaussianBlur stdDeviation="0.25" result="effect1_foregroundBlur_1252_103"/>
</filter>
<filter id="filter16_f_1252_103" x="28.019" y="16.7623" width="14.7117" height="5.52718" filterUnits="userSpaceOnUse" color-interpolation-filters="sRGB">
<feFlood flood-opacity="0" result="BackgroundImageFix"/>
<feBlend mode="normal" in="SourceGraphic" in2="BackgroundImageFix" result="shape"/>
<feGaussianBlur stdDeviation="0.25" result="effect1_foregroundBlur_1252_103"/>
</filter>
<filter id="filter17_f_1252_103" x="20.4888" y="18.405" width="6.53296" height="14.2791" filterUnits="userSpaceOnUse" color-interpolation-filters="sRGB">
<feFlood flood-opacity="0" result="BackgroundImageFix"/>
<feBlend mode="normal" in="SourceGraphic" in2="BackgroundImageFix" result="shape"/>
<feGaussianBlur stdDeviation="0.25" result="effect1_foregroundBlur_1252_103"/>
</filter>
<filter id="filter18_f_1252_103" x="45.0183" y="48.9309" width="12.408" height="6.89152" filterUnits="userSpaceOnUse" color-interpolation-filters="sRGB">
<feFlood flood-opacity="0" result="BackgroundImageFix"/>
<feBlend mode="normal" in="SourceGraphic" in2="BackgroundImageFix" result="shape"/>
<feGaussianBlur stdDeviation="0.25" result="effect1_foregroundBlur_1252_103"/>
</filter>
<filter id="filter19_f_1252_103" x="6.65674" y="37.5618" width="11.8721" height="32.5186" filterUnits="userSpaceOnUse" color-interpolation-filters="sRGB">
<feFlood flood-opacity="0" result="BackgroundImageFix"/>
<feBlend mode="normal" in="SourceGraphic" in2="BackgroundImageFix" result="shape"/>
<feGaussianBlur stdDeviation="0.25" result="effect1_foregroundBlur_1252_103"/>
</filter>
<filter id="filter20_f_1252_103" x="18.3998" y="55.8791" width="2.48076" height="2.47754" filterUnits="userSpaceOnUse" color-interpolation-filters="sRGB">
<feFlood flood-opacity="0" result="BackgroundImageFix"/>
<feBlend mode="normal" in="SourceGraphic" in2="BackgroundImageFix" result="shape"/>
<feGaussianBlur stdDeviation="0.05" result="effect1_foregroundBlur_1252_103"/>
</filter>
<filter id="filter21_f_1252_103" x="21.4625" y="41.806" width="3.93877" height="9.10781" filterUnits="userSpaceOnUse" color-interpolation-filters="sRGB">
<feFlood flood-opacity="0" result="BackgroundImageFix"/>
<feBlend mode="normal" in="SourceGraphic" in2="BackgroundImageFix" result="shape"/>
<feGaussianBlur stdDeviation="0.05" result="effect1_foregroundBlur_1252_103"/>
</filter>
<filter id="filter22_f_1252_103" x="32.3099" y="27.4491" width="4.91167" height="11.8153" filterUnits="userSpaceOnUse" color-interpolation-filters="sRGB">
<feFlood flood-opacity="0" result="BackgroundImageFix"/>
<feBlend mode="normal" in="SourceGraphic" in2="BackgroundImageFix" result="shape"/>
<feGaussianBlur stdDeviation="0.05" result="effect1_foregroundBlur_1252_103"/>
</filter>
<filter id="filter23_f_1252_103" x="37.443" y="39.3488" width="11.7876" height="5.01949" filterUnits="userSpaceOnUse" color-interpolation-filters="sRGB">
<feFlood flood-opacity="0" result="BackgroundImageFix"/>
<feBlend mode="normal" in="SourceGraphic" in2="BackgroundImageFix" result="shape"/>
<feGaussianBlur stdDeviation="0.05" result="effect1_foregroundBlur_1252_103"/>
</filter>
<filter id="filter24_f_1252_103" x="25.7557" y="51.2567" width="9.10649" height="3.95936" filterUnits="userSpaceOnUse" color-interpolation-filters="sRGB">
<feFlood flood-opacity="0" result="BackgroundImageFix"/>
<feBlend mode="normal" in="SourceGraphic" in2="BackgroundImageFix" result="shape"/>
<feGaussianBlur stdDeviation="0.05" result="effect1_foregroundBlur_1252_103"/>
</filter>
<filter id="filter25_f_1252_103" x="15.5312" y="11.6652" width="14.1362" height="3.60488" filterUnits="userSpaceOnUse" color-interpolation-filters="sRGB">
<feFlood flood-opacity="0" result="BackgroundImageFix"/>
<feBlend mode="normal" in="SourceGraphic" in2="BackgroundImageFix" result="shape"/>
<feGaussianBlur stdDeviation="0.25" result="effect1_foregroundBlur_1252_103"/>
</filter>
<filter id="filter26_f_1252_103" x="60.2051" y="46.905" width="3.73096" height="14.1361" filterUnits="userSpaceOnUse" color-interpolation-filters="sRGB">
<feFlood flood-opacity="0" result="BackgroundImageFix"/>
<feBlend mode="normal" in="SourceGraphic" in2="BackgroundImageFix" result="shape"/>
<feGaussianBlur stdDeviation="0.25" result="effect1_foregroundBlur_1252_103"/>
</filter>
<filter id="filter27_f_1252_103" x="10.1428" y="17.9823" width="3.26538" height="12.4237" filterUnits="userSpaceOnUse" color-interpolation-filters="sRGB">
<feFlood flood-opacity="0" result="BackgroundImageFix"/>
<feBlend mode="normal" in="SourceGraphic" in2="BackgroundImageFix" result="shape"/>
<feGaussianBlur stdDeviation="0.25" result="effect1_foregroundBlur_1252_103"/>
</filter>
<linearGradient id="paint0_linear_1252_103" x1="67.0937" y1="33.6965" x2="25.8281" y2="68.875" gradientUnits="userSpaceOnUse">
<stop stop-color="#4B7916"/>
<stop offset="0.165" stop-color="#4C4954"/>
<stop offset="0.243" stop-color="#4C771D"/>
<stop offset="0.464" stop-color="#524C55"/>
<stop offset="0.575" stop-color="#605A62"/>
<stop offset="1" stop-color="#574D55"/>
</linearGradient>
<linearGradient id="paint1_linear_1252_103" x1="61.8997" y1="26.125" x2="29.0938" y2="67.3906" gradientUnits="userSpaceOnUse">
<stop stop-color="#5A853F"/>
<stop offset="0.72" stop-color="#5B7444"/>
<stop offset="1" stop-color="#51534B"/>
</linearGradient>
<linearGradient id="paint2_linear_1252_103" x1="61.3676" y1="27.36" x2="68.3358" y2="42.2251" gradientUnits="userSpaceOnUse">
<stop stop-color="#80AE64"/>
<stop offset="0.51" stop-color="#84B05D"/>
<stop offset="1" stop-color="#8BB34F" stop-opacity="0"/>
</linearGradient>
<linearGradient id="paint3_linear_1252_103" x1="39.931" y1="10.8371" x2="6.82828" y2="47.3528" gradientUnits="userSpaceOnUse">
<stop stop-color="#5A873E"/>
<stop offset="0.364" stop-color="#528034"/>
<stop offset="0.578" stop-color="#5D8541"/>
<stop offset="1" stop-color="#4C6E39"/>
</linearGradient>
<linearGradient id="paint4_linear_1252_103" x1="34.7058" y1="17.9621" x2="38.1496" y2="69.1885" gradientUnits="userSpaceOnUse">
<stop stop-color="#2D5B18"/>
<stop offset="0.514" stop-color="#436C30"/>
<stop offset="0.907" stop-color="#374A2A"/>
</linearGradient>
<linearGradient id="paint5_linear_1252_103" x1="48.4644" y1="12.4687" x2="32.5091" y2="8.607" gradientUnits="userSpaceOnUse">
<stop stop-color="#80AE64"/>
<stop offset="0.51" stop-color="#84B05D"/>
<stop offset="1" stop-color="#8BB34F" stop-opacity="0"/>
</linearGradient>
<linearGradient id="paint6_linear_1252_103" x1="9.64956" y1="62.6406" x2="54.6249" y2="17.6652" gradientUnits="userSpaceOnUse">
<stop stop-color="#88AD37"/>
<stop offset="0.419" stop-color="#70A124"/>
<stop offset="0.536" stop-color="#71A520" stop-opacity="0.798"/>
<stop offset="0.779" stop-color="#89BF21"/>
<stop offset="1" stop-color="#89C031"/>
</linearGradient>
<linearGradient id="paint7_linear_1252_103" x1="8.90631" y1="63.384" x2="57.2969" y2="19.2969" gradientUnits="userSpaceOnUse">
<stop stop-color="#8FB541"/>
<stop offset="0.169" stop-color="#86AA3C"/>
<stop offset="0.358" stop-color="#8DB93F"/>
<stop offset="0.535" stop-color="#81A738"/>
<stop offset="0.712" stop-color="#8CBC3D"/>
<stop offset="0.884" stop-color="#82B42E"/>
<stop offset="1" stop-color="#83B835"/>
</linearGradient>
<linearGradient id="paint8_linear_1252_103" x1="25.9779" y1="32.5826" x2="38.8171" y2="50.7656" gradientUnits="userSpaceOnUse">
<stop stop-color="#457328"/>
<stop offset="1" stop-color="#46772A"/>
</linearGradient>
<radialGradient id="paint9_radial_1252_103" cx="0" cy="0" r="1" gradientUnits="userSpaceOnUse" gradientTransform="translate(35.3282 40.2278) rotate(100.814) scale(13.4498 13.4598)">
<stop stop-color="#3E5D2E"/>
<stop offset="1" stop-color="#40602F" stop-opacity="0"/>
</radialGradient>
<linearGradient id="paint10_linear_1252_103" x1="47.1295" y1="28.4264" x2="36.9621" y2="38.5938" gradientUnits="userSpaceOnUse">
<stop offset="0.311" stop-color="#5C8141"/>
<stop offset="1" stop-color="#5C8142" stop-opacity="0"/>
</linearGradient>
<linearGradient id="paint11_linear_1252_103" x1="48.2339" y1="42.4769" x2="37.2781" y2="39.0094" gradientUnits="userSpaceOnUse">
<stop offset="0.434" stop-color="#4D6E3C"/>
<stop offset="1" stop-color="#4D6D3C" stop-opacity="0"/>
</linearGradient>
<linearGradient id="paint12_linear_1252_103" x1="21.5554" y1="43.472" x2="24.9659" y2="54.4493" gradientUnits="userSpaceOnUse">
<stop offset="0.597" stop-color="#5C8142"/>
<stop offset="1" stop-color="#4C6D3A" stop-opacity="0"/>
</linearGradient>
<linearGradient id="paint13_linear_1252_103" x1="33.4117" y1="54.853" x2="22.4178" y2="51.5019" gradientUnits="userSpaceOnUse">
<stop offset="0.597" stop-color="#5C8142"/>
<stop offset="1" stop-color="#4C6D3A" stop-opacity="0"/>
</linearGradient>
<linearGradient id="paint14_linear_1252_103" x1="19.6673" y1="57.2232" x2="37.7054" y2="39.1899" gradientUnits="userSpaceOnUse">
<stop offset="0.689" stop-color="#5C8142"/>
<stop offset="1" stop-color="#5C8142" stop-opacity="0"/>
</linearGradient>
<linearGradient id="paint15_linear_1252_103" x1="55.4421" y1="34.9648" x2="57.1498" y2="48.317" gradientUnits="userSpaceOnUse">
<stop stop-color="#B2DE74" stop-opacity="0"/>
<stop offset="0.233" stop-color="#B2DE74"/>
<stop offset="1" stop-color="#B2DD74" stop-opacity="0"/>
</linearGradient>
<linearGradient id="paint16_linear_1252_103" x1="55.4421" y1="34.9648" x2="57.1498" y2="48.317" gradientUnits="userSpaceOnUse">
<stop stop-color="#B2DE74" stop-opacity="0"/>
<stop offset="0.233" stop-color="#B2DE74"/>
<stop offset="1" stop-color="#B2DD74" stop-opacity="0"/>
</linearGradient>
<linearGradient id="paint17_linear_1252_103" x1="41.6504" y1="20.7076" x2="28.4763" y2="17.9502" gradientUnits="userSpaceOnUse">
<stop stop-color="#B2DE74" stop-opacity="0"/>
<stop offset="0.233" stop-color="#B2DE74"/>
<stop offset="1" stop-color="#B2DD74" stop-opacity="0"/>
</linearGradient>
<linearGradient id="paint18_linear_1252_103" x1="41.6504" y1="20.7076" x2="28.4763" y2="17.9502" gradientUnits="userSpaceOnUse">
<stop stop-color="#B2DE74" stop-opacity="0"/>
<stop offset="0.233" stop-color="#B2DE74"/>
<stop offset="1" stop-color="#B2DD74" stop-opacity="0"/>
</linearGradient>
<linearGradient id="paint19_linear_1252_103" x1="21.5792" y1="31.4901" x2="26.7876" y2="19.095" gradientUnits="userSpaceOnUse">
<stop stop-color="#8CB750"/>
<stop offset="0.233" stop-color="#94C155"/>
<stop offset="1" stop-color="#ABD46F" stop-opacity="0"/>
</linearGradient>
<linearGradient id="paint20_linear_1252_103" x1="46.5001" y1="54.4873" x2="58.8714" y2="49.1815" gradientUnits="userSpaceOnUse">
<stop offset="0.58" stop-color="#96AA61"/>
<stop offset="1" stop-color="#819252" stop-opacity="0"/>
</linearGradient>
<linearGradient id="paint21_linear_1252_103" x1="14.7703" y1="38.5937" x2="3.33941" y2="60.192" gradientUnits="userSpaceOnUse">
<stop stop-color="#8BB34F" stop-opacity="0"/>
<stop offset="0.289" stop-color="#94C051"/>
<stop offset="0.708" stop-color="#94BE55"/>
<stop offset="1" stop-color="#8BB34F" stop-opacity="0"/>
</linearGradient>
<radialGradient id="paint22_radial_1252_103" cx="0" cy="0" r="1" gradientUnits="userSpaceOnUse" gradientTransform="translate(18.9051 57.8336) rotate(-50.6163) scale(1.60839 1.25516)">
<stop stop-color="#80AE64"/>
<stop offset="1" stop-color="#8BB34F" stop-opacity="0"/>
</radialGradient>
<linearGradient id="paint23_linear_1252_103" x1="22.4698" y1="45.2912" x2="23.434" y2="44.9397" gradientUnits="userSpaceOnUse">
<stop stop-color="#6E9253"/>
<stop offset="1" stop-color="#436C2F"/>
</linearGradient>
<linearGradient id="paint24_linear_1252_103" x1="33.2501" y1="30.837" x2="34.4756" y2="30.4855" gradientUnits="userSpaceOnUse">
<stop stop-color="#597843"/>
<stop offset="1" stop-color="#456D31"/>
</linearGradient>
<linearGradient id="paint25_linear_1252_103" x1="45.8423" y1="43.3984" x2="46.2081" y2="42.1776" gradientUnits="userSpaceOnUse">
<stop stop-color="#597843"/>
<stop offset="1" stop-color="#456D31"/>
</linearGradient>
<linearGradient id="paint26_linear_1252_103" x1="31.3761" y1="54.2022" x2="31.7324" y2="53.238" gradientUnits="userSpaceOnUse">
<stop stop-color="#6E9253"/>
<stop offset="1" stop-color="#436C2F"/>
</linearGradient>
<linearGradient id="paint27_linear_1252_103" x1="27.5357" y1="13.6847" x2="18.259" y2="14.1764" gradientUnits="userSpaceOnUse">
<stop stop-color="#77A458"/>
<stop offset="1" stop-color="#77A458" stop-opacity="0"/>
</linearGradient>
<linearGradient id="paint28_linear_1252_103" x1="61.8237" y1="49.0176" x2="61.5173" y2="58.3015" gradientUnits="userSpaceOnUse">
<stop stop-color="#77A458"/>
<stop offset="1" stop-color="#77A458" stop-opacity="0"/>
</linearGradient>
<linearGradient id="paint29_linear_1252_103" x1="11.9795" y1="28.576" x2="12.2455" y2="19.0736" gradientUnits="userSpaceOnUse">
<stop offset="0.5" stop-color="#688E4F"/>
<stop offset="1" stop-color="#77A458" stop-opacity="0"/>
</linearGradient>
</defs>
</svg>
