<svg width="43" height="46" viewBox="0 0 43 46" fill="none" xmlns="http://www.w3.org/2000/svg">
<rect width="43" height="46" fill="#1E1E1E"/>
<g id="Assets">
<rect width="1941" height="4086" transform="translate(-949 -3556)" fill="white"/>
<g id="Frame 133">
<path id="Vector" d="M3.12492 0.166626H0.083252V39.7083C0.083252 41.3217 0.724173 42.869 1.86502 44.0099C3.00587 45.1507 4.55318 45.7916 6.16659 45.7916H36.5833C38.1967 45.7916 39.744 45.1507 40.8848 44.0099C42.0257 42.869 42.6666 41.3217 42.6666 39.7083V0.166626H3.12492ZM15.2916 36.6666H9.20825V9.29163H15.2916V36.6666ZM33.5416 36.6666H27.4583V9.29163H33.5416V36.6666Z" fill="#FF0000"/>
</g>
<path id="Vector_2" d="M3.04167 0.166748H0V39.7084C0 41.3218 0.640921 42.8691 1.78177 44.01C2.92261 45.1508 4.46993 45.7917 6.08333 45.7917H36.5C38.1134 45.7917 39.6607 45.1508 40.8016 44.01C41.9424 42.8691 42.5833 41.3218 42.5833 39.7084V0.166748H3.04167ZM15.2083 36.6668H9.125V9.29175H15.2083V36.6668ZM33.4583 36.6668H27.375V9.29175H33.4583V36.6668Z" fill="#FF0000"/>
</g>
</svg>
